<svg xmlns="http://www.w3.org/2000/svg" viewBox="0 0 215.84 71.35"><defs><style>.cls-1{fill:#262626;}.cls-2,.cls-3{isolation:isolate;}.cls-3{font-size:22px;font-family:TitilliumWeb-SemiBold, Titillium Web;font-weight:600;}.cls-3,.cls-4{fill:#688ea1;}</style></defs><g id="Layer_2" data-name="Layer 2"><g id="Layer_1-2" data-name="Layer 1"><path class="cls-1" d="M215.41,29.17a3.68,3.68,0,0,0-3.27-5.38h-23.2V3.69A3.69,3.69,0,0,0,185.26,0H30.56a3.68,3.68,0,0,0-3.68,3.68h0v20.1H3.68A3.69,3.69,0,0,0,.41,29.17L10,47.57.41,66a3.68,3.68,0,0,0,3.27,5.38h44.9a3.69,3.69,0,0,0,3.69-3.68h0V47.58h111.3V67.67a3.68,3.68,0,0,0,3.68,3.68h44.91a3.69,3.69,0,0,0,3.68-3.7,3.66,3.66,0,0,0-.41-1.68l-9.57-18.39ZM48,67.38,26.88,47.58H48Zm119.77,0V47.58H189Z"/><g class="cls-2"><text class="cls-3" transform="translate(77.16 31)">Languages</text></g><path class="cls-4" d="M55.72,11.33l-.93-.3a.36.36,0,0,0-.35,0,.55.55,0,0,0-.24.34L48.58,34a.64.64,0,0,0,0,.43.57.57,0,0,0,.3.27l.93.3a.34.34,0,0,0,.35,0,.55.55,0,0,0,.24-.34L56.06,12a.63.63,0,0,0,0-.43A.47.47,0,0,0,55.72,11.33Zm-9.13,4.42a.64.64,0,0,0-.15-.4l-.76-.88a.43.43,0,0,0-.6-.09l-.09.09L38,22.6a.61.61,0,0,0,0,.8l7,8.13a.42.42,0,0,0,.6.1.28.28,0,0,0,.09-.1l.76-.87a.61.61,0,0,0,0-.8L40.52,23l5.92-6.85A.62.62,0,0,0,46.59,15.75ZM66.67,22.6l-7-8.13a.43.43,0,0,0-.6-.09.38.38,0,0,0-.09.09l-.75.87a.61.61,0,0,0,0,.8L64.13,23l-5.92,6.86a.61.61,0,0,0,0,.8l.75.87a.43.43,0,0,0,.6.09.2.2,0,0,0,.09-.09l7-8.13a.61.61,0,0,0,0-.8Z"/></g></g></svg>