<svg xmlns="http://www.w3.org/2000/svg" viewBox="0 0 215.84 71.35"><defs><style>.cls-1{fill:#262626;}.cls-2,.cls-3{isolation:isolate;}.cls-3{font-size:22px;font-family:TitilliumWeb-SemiBold, Titillium Web;font-weight:600;}.cls-3,.cls-4{fill:#688ea1;}</style></defs><g id="Layer_2" data-name="Layer 2"><g id="Layer_1-2" data-name="Layer 1"><path class="cls-1" d="M215.41,29.17a3.68,3.68,0,0,0-3.27-5.38h-23.2V3.69A3.69,3.69,0,0,0,185.26,0H30.56a3.68,3.68,0,0,0-3.68,3.68h0v20.1H3.68A3.69,3.69,0,0,0,.41,29.17L10,47.57.41,66a3.68,3.68,0,0,0,3.27,5.38h44.9a3.69,3.69,0,0,0,3.69-3.68h0V47.58h111.3V67.67a3.68,3.68,0,0,0,3.68,3.68h44.91a3.69,3.69,0,0,0,3.68-3.7,3.66,3.66,0,0,0-.41-1.68l-9.57-18.39ZM48,67.38,26.88,47.58H48Zm119.77,0V47.58H189Z"/><g class="cls-2"><text class="cls-3" transform="translate(102.8 32)">Misc</text></g><path class="cls-4" d="M71.27,13a2.45,2.45,0,1,0,2.44,2.45h0A2.45,2.45,0,0,0,71.27,13Zm0,8.56A2.45,2.45,0,1,0,73.71,24a2.45,2.45,0,0,0-2.44-2.44Zm0,8.55a2.45,2.45,0,1,0,2.44,2.45h0a2.44,2.44,0,0,0-2.44-2.45Zm4.83.82H92.82v3.26H76.1Zm0-17.11H92.82v3.26H76.1Zm0,8.55H92.82v3.27H76.1Z"/></g></g></svg>