<svg xmlns="http://www.w3.org/2000/svg" viewBox="0 0 215.84 71.35"><defs><style>.cls-1{fill:#262626;}.cls-2,.cls-3{isolation:isolate;}.cls-3{font-size:22px;font-family:TitilliumWeb-SemiBold, Titillium Web;font-weight:600;}.cls-3,.cls-4{fill:#688ea1;}</style></defs><g id="Layer_2" data-name="Layer 2"><g id="Layer_1-2" data-name="Layer 1"><path class="cls-1" d="M215.41,29.17a3.68,3.68,0,0,0-3.27-5.38h-23.2V3.69A3.69,3.69,0,0,0,185.26,0H30.56a3.68,3.68,0,0,0-3.68,3.68h0v20.1H3.68A3.69,3.69,0,0,0,.41,29.17L10,47.57.41,66a3.68,3.68,0,0,0,3.27,5.38h44.9a3.69,3.69,0,0,0,3.69-3.68h0V47.58h111.3V67.67a3.68,3.68,0,0,0,3.68,3.68h44.91a3.69,3.69,0,0,0,3.68-3.7,3.66,3.66,0,0,0-.41-1.68l-9.57-18.39ZM48,67.38,26.88,47.58H48Zm119.77,0V47.58H189Z"/><g class="cls-2"><text class="cls-3" transform="translate(98.31 32)">Cloud</text></g><path class="cls-4" d="M85.24,27.56a2.58,2.58,0,0,0-2.48,1.87H80.27V26.69h2.54a5,5,0,0,0,1.46-9.81,5.71,5.71,0,0,0-8.41-3.57,5,5,0,0,0-8.38,3.54,5,5,0,0,0,1.35,9.84h2.54v2.74H68.88a2.58,2.58,0,1,0,0,1.41h3.19a.7.7,0,0,0,.7-.7V26.69h2.35v4.25a2.57,2.57,0,1,0,1.41,0V26.69h2.34v3.45a.7.7,0,0,0,.7.7h3.19a2.58,2.58,0,1,0,2.48-3.29ZM66.4,31.31a1.17,1.17,0,1,1,0-2.34,1.17,1.17,0,0,1,1.17,1.17h0A1.17,1.17,0,0,1,66.4,31.31ZM77,33.43a1.17,1.17,0,1,1-1.17-1.18A1.16,1.16,0,0,1,77,33.43Zm-8.16-8.15a3.6,3.6,0,0,1-.53-7.17.7.7,0,0,0,.6-.76c0-.11,0-.22,0-.33a3.6,3.6,0,0,1,6.33-2.34.7.7,0,0,0,1,.11A4.3,4.3,0,0,1,83,17.57a.69.69,0,0,0,.56.57,3.6,3.6,0,0,1-.72,7.14Zm16.41,6a1.17,1.17,0,1,1,1.17-1.17h0a1.17,1.17,0,0,1-1.17,1.17Z"/></g></g></svg>