<svg xmlns="http://www.w3.org/2000/svg" viewBox="0 0 215.84 71.35"><defs><style>.cls-1{fill:#262626;}.cls-2,.cls-3{isolation:isolate;}.cls-3{font-size:22px;font-family:TitilliumWeb-SemiBold, Titillium Web;font-weight:600;}.cls-3,.cls-4{fill:#688ea1;}</style></defs><g id="Layer_2" data-name="Layer 2"><g id="Layer_1-2" data-name="Layer 1"><path class="cls-1" d="M215.41,29.17a3.68,3.68,0,0,0-3.27-5.38h-23.2V3.69A3.69,3.69,0,0,0,185.26,0H30.56a3.68,3.68,0,0,0-3.68,3.68h0v20.1H3.68A3.69,3.69,0,0,0,.41,29.17L10,47.57.41,66a3.68,3.68,0,0,0,3.27,5.38h44.9a3.69,3.69,0,0,0,3.69-3.68h0V47.58h111.3V67.67a3.68,3.68,0,0,0,3.68,3.68h44.91a3.69,3.69,0,0,0,3.68-3.7,3.66,3.66,0,0,0-.41-1.68l-9.57-18.39ZM48,67.38,26.88,47.58H48Zm119.77,0V47.58H189Z"/><g class="cls-2"><text class="cls-3" transform="translate(75.3 31)">Databases</text></g><path class="cls-4" d="M52.82,17c-1.23,0-12-.08-12-3s10.77-3,12-3,12,.09,12,3S54.05,17,52.82,17ZM42.41,14c.73.57,4.24,1.5,10.41,1.5s9.68-.93,10.41-1.5c-.73-.57-4.24-1.5-10.41-1.5s-9.68.93-10.41,1.5Zm20.94.12h0ZM52.82,23c-1.23,0-12-.08-12-3a.75.75,0,1,1,1.5-.09c.46.55,4,1.59,10.5,1.59s10-1,10.5-1.59a.75.75,0,1,1,1.5.09h0c0,2.91-10.77,3-12,3Zm0,6c-1.23,0-12-.08-12-3a.75.75,0,1,1,1.5-.09c.46.55,4,1.59,10.5,1.59s10-1,10.5-1.59a.75.75,0,1,1,1.5.09h0c0,2.91-10.77,3-12,3Z"/><path class="cls-4" d="M52.82,35c-1.23,0-12-.08-12-3V14a.75.75,0,0,1,1.5,0V31.92c.48.56,4,1.58,10.5,1.58s10-1,10.5-1.58V14a.75.75,0,0,1,1.5,0V32C64.82,34.92,54.05,35,52.82,35Z"/><circle class="cls-4" cx="45.89" cy="25.02" r="0.89"/><circle class="cls-4" cx="45.89" cy="19.06" r="0.89"/><circle class="cls-4" cx="45.89" cy="30.99" r="0.89"/></g></g></svg>