<svg xmlns="http://www.w3.org/2000/svg" viewBox="0 0 215.84 71.35"><defs><style>.cls-1{fill:#262626;}.cls-2,.cls-3{isolation:isolate;}.cls-3{font-size:22px;font-family:TitilliumWeb-SemiBold, Titillium Web;font-weight:600;}.cls-3,.cls-5{fill:#688ea1;}.cls-4{letter-spacing:-0.02em;}</style></defs><g id="Layer_2" data-name="Layer 2"><g id="Layer_1-2" data-name="Layer 1"><path class="cls-1" d="M215.41,29.17a3.68,3.68,0,0,0-3.27-5.38h-23.2V3.69A3.69,3.69,0,0,0,185.26,0H30.56a3.68,3.68,0,0,0-3.68,3.68h0v20.1H3.68A3.69,3.69,0,0,0,.41,29.17L10,47.57.41,66a3.68,3.68,0,0,0,3.27,5.38h44.9a3.69,3.69,0,0,0,3.69-3.68h0V47.58h111.3V67.67a3.68,3.68,0,0,0,3.68,3.68h44.91a3.69,3.69,0,0,0,3.68-3.7,3.66,3.66,0,0,0-.41-1.68l-9.57-18.39ZM48,67.38,26.88,47.58H48Zm119.77,0V47.58H189Z"/><g class="cls-2"><text class="cls-3" transform="translate(103.64 32)"><tspan class="cls-4">W</tspan><tspan x="19.6" y="0">eb</tspan></text></g><path class="cls-5" d="M81.9,12a12,12,0,1,0,12,12A12,12,0,0,0,81.9,12Zm-3.58,2a12.27,12.27,0,0,0-1.84,3.6h-3A10.8,10.8,0,0,1,78.32,14Zm-5.77,5h3.54a20.47,20.47,0,0,0-.55,4.27H71.33A10.5,10.5,0,0,1,72.55,19Zm0,10a10.54,10.54,0,0,1-1.22-4.28h4.21A20.47,20.47,0,0,0,76.09,29Zm.9,1.4h3A11.89,11.89,0,0,0,78.32,34a10.66,10.66,0,0,1-4.88-3.6Zm7.75,4.1c-1.57-.53-2.65-2.54-3.23-4.1H81.2Zm0-5.5H77.53a19.88,19.88,0,0,1-.59-4.28H81.2Zm0-5.68H76.94A19.7,19.7,0,0,1,77.53,19H81.2Zm0-5.67H78c.57-1.55,1.66-3.57,3.23-4.1Zm10,1.4a10.54,10.54,0,0,1,1.22,4.27H88.26A21.16,21.16,0,0,0,87.71,19Zm-.9-1.4h-3A11.89,11.89,0,0,0,85.48,14a10.58,10.58,0,0,1,4.87,3.6Zm-7.75-4.1c1.57.53,2.65,2.54,3.22,4.1H82.6Zm0,5.51h3.66a19.1,19.1,0,0,1,.59,4.26H82.6Zm0,5.66h4.25A19.19,19.19,0,0,1,86.26,29H82.6Zm0,9.78v-4.1h3.22c-.57,1.55-1.65,3.57-3.22,4.1Zm2.88-.5a12,12,0,0,0,1.83-3.6h3A10.63,10.63,0,0,1,85.48,34Zm5.77-5H87.71a21.16,21.16,0,0,0,.55-4.27h4.21A10.46,10.46,0,0,1,91.25,29Z"/></g></g></svg>