<svg xmlns="http://www.w3.org/2000/svg" viewBox="0 0 122.87 88.42"><defs><style>.cls-1{}</style></defs><g id="Layer_2" data-name="Layer 2"><g id="Layer_1-2" data-name="Layer 1"><path class="cls-1" d="M121.7,33.62c-.34-.28-3.42-2.62-10-2.62a31.38,31.38,0,0,0-5.19.46C105.23,22.74,98,18.52,97.7,18.3l-1.77-1-1.14,1.65C90.73,25,89.61,33.74,93.71,39.83c-3,1.71-7.92,2.11-8.95,2.17H3.83A3.82,3.82,0,0,0,0,45.82a57.75,57.75,0,0,0,3.53,20.8c2.79,7.29,7,12.71,12.31,16,9.14,5.91,29.05,7.12,42,4.44C81,83,96.26,67.41,103.84,46.5c6.76.41,12.61-2.63,14.87-5.19A15.21,15.21,0,0,0,122.36,36l.51-1.48-1.17-.85ZM72,40H83a1,1,0,0,0,1-1V29.34a1,1,0,0,0-1-1H72a1,1,0,0,0-.93,1h0V39A1,1,0,0,0,72,40ZM56,12H67a1,1,0,0,0,1-1V1a1,1,0,0,0-1-1H56a1,1,0,0,0-1,1h0V11A1,1,0,0,0,56,12Zm0,14H67.05a1,1,0,0,0,1-1V15a1,1,0,0,0-1-1H56a1,1,0,0,0-1,1h0V25A1,1,0,0,0,56,26ZM41,26h11a1,1,0,0,0,1-1V15.34a1,1,0,0,0-1-1H41a1,1,0,0,0-.93,1h0V25A1,1,0,0,0,41,26ZM26,26h11a1,1,0,0,0,1-1V15.34a1,1,0,0,0-1-1c-.07,0-11,0-11.08,0a1,1,0,0,0-.93,1V25A1.05,1.05,0,0,0,26,26ZM56,40H67a1,1,0,0,0,1-1V29.34a1,1,0,0,0-1-1H56a1,1,0,0,0-.93,1h0V39a1,1,0,0,0,1,1ZM41,40H52a1,1,0,0,0,1-1h0V29.34a1,1,0,0,0-1-1H41a1,1,0,0,0-.93,1h0V39a.93.93,0,0,0,1,1ZM26,40H37a1,1,0,0,0,1-1h0V29.34a1,1,0,0,0-1-1c-.07,0-11,0-11.08,0a1,1,0,0,0-.93,1V39A1,1,0,0,0,26,40ZM11,40H22a1,1,0,0,0,1-1h0V29.34a1,1,0,0,0-1-1H11a1,1,0,0,0-.93,1h0V39a1,1,0,0,0,1,1Z"/></g></g></svg>