<svg xmlns="http://www.w3.org/2000/svg" viewBox="0 0 512.72 512"><g id="Layer_2" data-name="Layer 2"><g id="Layer_1-2" data-name="Layer 1"><path d="M512.7,162.33c-.94-5.63-1.71-10-7.68-13.67C260.78,3.78,264.23-7,248.38,2.57,63.27,117.64,11.75,143.3,4.35,152.26-2.37,159.15.7,169.71.7,329.29.25,347.44,165.88,445.81,246.44,508.57c7.1,5.06,16,4.25,21.4-.62C507.28,338.23,513.11,345.05,512.7,329.29c0,0-.26-169.11,0-167Zm-32,138.48L398,250.48,480.7,193ZM368.12,232.29,272.7,174.22V44.72L467.39,163.23ZM256.7,309.79,174,252.25l82.69-50.32,82.69,50.32ZM240.7,44.7V174.28q-47.34,29.4-94.95,58.33L46,163.23Zm-124.95,206c-40,24-66.09,39.32-83,49.49V193Zm28.37,19.71,96.58,67.18v128L46,330.16ZM272.7,465.63v-128l96.58-67.18,98.11,59.71Z"/></g></g></svg>