<svg xmlns="http://www.w3.org/2000/svg" width="196" height="128" viewBox="0 0 196 128"><g transform="translate(-426.896 -1895)"><g transform="translate(426.896 1895)" fill="#f0f2f2"><path d="M 181.3000030517578 127.5 L 14.69999980926514 127.5 C 10.90750026702881 127.5 7.341849803924561 126.0160522460938 4.659924983978271 123.3214721679688 C 1.977349996566772 120.6262741088867 0.5 117.0426712036133 0.5 113.2307739257812 L 0.5 14.76922512054443 C 0.5 10.95734977722168 1.977349996566772 7.373724937438965 4.659924983978271 4.678524971008301 C 7.341849803924561 1.983975052833557 10.90750026702881 0.5 14.69999980926514 0.5 L 181.3000030517578 0.5 C 185.092529296875 0.5 188.6581573486328 1.983975052833557 191.3401031494141 4.678524971008301 C 194.0226440429688 7.373724937438965 195.5 10.95734977722168 195.5 14.76922512054443 L 195.5 113.2307739257812 C 195.5 117.0426712036133 194.0226440429688 120.6262741088867 191.3401031494141 123.3214721679688 C 188.6581573486328 126.0160522460938 185.092529296875 127.5 181.3000030517578 127.5 Z" stroke="none"/><path d="M 14.69999694824219 1 C 11.04150390625 1 7.601699829101562 2.431648254394531 5.014297485351562 5.03125 C 2.425643920898438 7.632102966308594 1 11.09044647216797 1 14.76922607421875 L 1 113.2307739257812 C 1 116.9095458984375 2.425643920898438 120.3678970336914 5.014297485351562 122.96875 C 7.601699829101562 125.5683517456055 11.04150390625 127 14.69999694824219 127 L 181.3000030517578 127 C 184.9585266113281 127 188.3983001708984 125.5683517456055 190.9857025146484 122.96875 C 193.5743713378906 120.3678970336914 195 116.9095458984375 195 113.2307739257812 L 195 14.76922607421875 C 195 11.09044647216797 193.5743713378906 7.632102966308594 190.9857025146484 5.03125 C 188.3983001708984 2.431648254394531 184.9585266113281 1 181.3000030517578 1 L 14.69999694824219 1 M 14.69999694824219 0 L 181.3000030517578 0 C 189.4185943603516 0 196 6.612396240234375 196 14.76922607421875 L 196 113.2307739257812 C 196 121.3876037597656 189.4185943603516 128 181.3000030517578 128 L 14.69999694824219 128 C 6.5814208984375 128 0 121.3876037597656 0 113.2307739257812 L 0 14.76922607421875 C 0 6.612396240234375 6.5814208984375 0 14.69999694824219 0 Z" stroke="none" fill="#262626"/></g><g transform="translate(442.851 1974.856)"><path d="M20.048,6.633h.893l2.545-2.545.125-1.081A11.44,11.44,0,0,0,5,8.589a1.384,1.384,0,0,1,.893-.054l5.09-.839s.259-.429.393-.4a6.35,6.35,0,0,1,8.689-.661Z" transform="translate(-0.423 0)" fill="#ea4335"/><path d="M28.36,8.894A11.375,11.375,0,0,0,24.9,3.36L21.332,6.907a6.287,6.287,0,0,1,2.331,5v.63a3.157,3.157,0,1,1,0,6.314H17.3l-.634.638v3.787l.634.63h6.358a8.2,8.2,0,0,0,4.7-15.013Z" transform="translate(-1.671 -0.344)" fill="#4285f4"/><path d="M9.652,25.846h6.358v-5.09H9.652A3.161,3.161,0,0,1,8.34,20.47l-.894.277L4.883,23.292l-.223.893a8.225,8.225,0,0,0,4.992,1.661Z" transform="translate(-0.387 -2.319)" fill="#34a853"/><path d="M9.265,8A8.27,8.27,0,0,0,4.273,22.825l3.688-3.688a3.179,3.179,0,1,1,4.206-4.206l3.688-3.688A8.261,8.261,0,0,0,9.265,8Z" transform="translate(0 -0.985)" fill="#fbbc05"/><g transform="translate(39.718 3.587)"><path d="M51.788,20.418a8.164,8.164,0,0,1-5.894-2.4,7.78,7.78,0,0,1-2.474-5.783,7.789,7.789,0,0,1,2.474-5.783A8.163,8.163,0,0,1,51.788,4a7.923,7.923,0,0,1,5.653,2.262l-1.59,1.605a5.746,5.746,0,0,0-4.063-1.6,5.681,5.681,0,0,0-4.2,1.774,5.772,5.772,0,0,0-1.724,4.213,5.772,5.772,0,0,0,1.724,4.16,6.022,6.022,0,0,0,8.359.1,4.7,4.7,0,0,0,1.223-2.758H51.815V11.486H59.4a7.154,7.154,0,0,1,.089,1.384A7.068,7.068,0,0,1,57.53,18.1a7.627,7.627,0,0,1-5.742,2.315ZM69.416,18.91a5.492,5.492,0,0,1-7.564,0,5.038,5.038,0,0,1-1.545-3.77,5.047,5.047,0,0,1,1.545-3.77,5.5,5.5,0,0,1,7.564,0,5.047,5.047,0,0,1,1.545,3.77,5.038,5.038,0,0,1-1.554,3.77Zm-5.894-1.481a2.907,2.907,0,0,0,4.224,0,3.146,3.146,0,0,0,.893-2.288,3.155,3.155,0,0,0-.893-2.3,2.952,2.952,0,0,0-4.242,0,3.155,3.155,0,0,0-.893,2.3,3.146,3.146,0,0,0,.9,2.288ZM81.044,18.91a5.492,5.492,0,0,1-7.564,0,5.038,5.038,0,0,1-1.545-3.77,5.047,5.047,0,0,1,1.545-3.77,5.492,5.492,0,0,1,7.564,0,5.047,5.047,0,0,1,1.545,3.77,5.038,5.038,0,0,1-1.545,3.77ZM75.15,17.429a2.907,2.907,0,0,0,4.224,0,3.146,3.146,0,0,0,.893-2.288,3.155,3.155,0,0,0-.893-2.3,2.952,2.952,0,0,0-4.242,0,3.155,3.155,0,0,0-.893,2.3,3.146,3.146,0,0,0,.9,2.288Zm13.539,7.725a4.7,4.7,0,0,1-2.974-.94,5.443,5.443,0,0,1-1.733-2.182l2.036-.843a3.409,3.409,0,0,0,1.009,1.322,2.556,2.556,0,0,0,1.67.559,2.689,2.689,0,0,0,2.081-.8,3.223,3.223,0,0,0,.741-2.306V19.2h-.08a3.413,3.413,0,0,1-2.8,1.2,4.865,4.865,0,0,1-3.572-1.543,5.082,5.082,0,0,1-1.527-3.716A5.135,5.135,0,0,1,85.071,11.4a4.856,4.856,0,0,1,3.572-1.552,3.862,3.862,0,0,1,1.643.364,3.3,3.3,0,0,1,1.161.843h.08v-.843h2.215v9.446a5.485,5.485,0,0,1-1.42,4.124,5.02,5.02,0,0,1-3.635,1.375Zm.161-6.812a2.607,2.607,0,0,0,2.018-.887,3.268,3.268,0,0,0,.813-2.271,3.339,3.339,0,0,0-.813-2.315,2.6,2.6,0,0,0-2.018-.887,2.769,2.769,0,0,0-2.09.887,3.225,3.225,0,0,0-.893,2.3,3.164,3.164,0,0,0,.893,2.271,2.777,2.777,0,0,0,2.09.9ZM97.681,4.594V20.1H95.35V4.594Zm6.394,15.823a5.169,5.169,0,0,1-5.269-5.277,5.178,5.178,0,0,1,1.456-3.8,4.8,4.8,0,0,1,3.572-1.481,4.537,4.537,0,0,1,1.786.346,4.209,4.209,0,0,1,1.366.887,6.218,6.218,0,0,1,.893,1.073,6.324,6.324,0,0,1,.527,1.038l.241.6L101.5,16.728a2.681,2.681,0,0,0,2.572,1.6,3.05,3.05,0,0,0,2.617-1.463l1.786,1.2a5.868,5.868,0,0,1-1.715,1.614,4.883,4.883,0,0,1-2.688.745Zm-2.983-5.437,4.751-1.96a1.636,1.636,0,0,0-.741-.807,2.433,2.433,0,0,0-1.223-.31,2.768,2.768,0,0,0-1.92.843,2.8,2.8,0,0,0-.866,2.235Zm19.763,5.437a7.385,7.385,0,0,1-5.346-2.155,7.282,7.282,0,0,1-2.138-5.322,7.282,7.282,0,0,1,2.138-5.322,7.385,7.385,0,0,1,5.346-2.155,6.682,6.682,0,0,1,5.3,2.342l-1.286,1.242a4.872,4.872,0,0,0-4-1.818,5.467,5.467,0,0,0-5.59,5.712,5.467,5.467,0,0,0,5.59,5.712,5.7,5.7,0,0,0,4.465-2.076l1.286,1.277a7.014,7.014,0,0,1-2.474,1.872,7.617,7.617,0,0,1-3.286.692Zm9.216-.319h-1.849V5.774h1.849Zm3.018-8.621a5.076,5.076,0,0,1,8.716,3.725,5.076,5.076,0,1,1-10.145,0,5.169,5.169,0,0,1,1.429-3.725Zm1.375,6.3a3.131,3.131,0,0,0,4.528,0,3.534,3.534,0,0,0,.956-2.572,3.534,3.534,0,0,0-.956-2.572,3.131,3.131,0,0,0-4.528,0,3.534,3.534,0,0,0-.956,2.572,3.534,3.534,0,0,0,.964,2.563ZM152.05,20.1h-1.786V18.741h-.054a3.429,3.429,0,0,1-1.3,1.224,3.663,3.663,0,0,1-1.831.488,3.486,3.486,0,0,1-2.8-1.118,4.415,4.415,0,0,1-.956-3V10.306h1.849V16q0,2.741,2.438,2.741a2.274,2.274,0,0,0,1.875-.887,3.329,3.329,0,0,0,.723-2.12V10.306h1.849Zm6.278.319a4.353,4.353,0,0,1-3.3-1.5,5.3,5.3,0,0,1-1.384-3.716,5.3,5.3,0,0,1,1.384-3.716,4.353,4.353,0,0,1,3.3-1.5,4.212,4.212,0,0,1,2.018.479,3.413,3.413,0,0,1,1.34,1.2h.08l-.08-1.357V5.774h1.849V20.1h-1.786V18.741h-.08a3.412,3.412,0,0,1-1.34,1.2,4.212,4.212,0,0,1-2,.479Zm.3-1.676a2.956,2.956,0,0,0,2.224-.958,3.577,3.577,0,0,0,.893-2.581,3.577,3.577,0,0,0-.893-2.581,3.032,3.032,0,0,0-4.465,0,3.533,3.533,0,0,0-.893,2.572,3.533,3.533,0,0,0,.893,2.572A2.956,2.956,0,0,0,158.631,18.741Z" transform="translate(-43.419 -3.999)" fill="#5f6368"/></g></g><g transform="translate(328 2266)"><g transform="translate(116 -348)"><g transform="translate(0 0)"><path d="M28.8,0H3.21A3.2,3.2,0,0,0,0,3.217v29.31a3.2,3.2,0,0,0,3.21,3.217H28.8a3.2,3.2,0,0,0,3.21-3.217V3.217A3.2,3.2,0,0,0,28.8,0Zm1.427,32.526a1.41,1.41,0,0,1-1.427,1.43H3.21a1.41,1.41,0,0,1-1.427-1.43V3.217A1.41,1.41,0,0,1,3.21,1.787H28.8a1.41,1.41,0,0,1,1.427,1.43v29.31Zm-22.2-2.145,4.013-3.574L8.025,23.233ZM22.471,15.906a5.825,5.825,0,0,0-4.28-1.608A21.223,21.223,0,0,0,11.5,15.548V5.362H8.025V20.821l2.5-1.162a22.049,22.049,0,0,1,7.669-1.877c1.783,0,2.229.983,2.229,1.877V30.382h3.567V19.659A5.445,5.445,0,0,0,22.471,15.906ZM17.745,11.17h3.567a10.789,10.789,0,0,0,2.675-5.808H20.42A13.205,13.205,0,0,1,17.745,11.17Zm98.534,8.4V11.617h3.567V19.48c0,1.787.624,2.681,2.051,2.681s1.962-.8,1.962-2.681V11.617h3.478v7.953c0,3.485-1.694,5.54-5.529,5.54S116.279,23.054,116.279,19.569ZM101.3,11.706h3.567v4.825l3.656-4.825h4.1l-4.459,5.183,4.815,8.042h-4.013l-3.121-5.272-.981,1.162v4.11H101.3V11.706ZM84.355,18.229c0-4.825,3.3-6.881,6.509-6.881s6.509,2.055,6.509,6.881-3.3,6.881-6.509,6.881S84.355,23.144,84.355,18.229Zm9.363,0c0-2.413-1.07-3.932-2.943-3.932s-2.943,1.519-2.943,3.932,1.07,4.021,2.943,4.021S93.718,20.731,93.718,18.229ZM70,11.706h5.172c3.388,0,5.439,1.162,5.439,4.289a3.589,3.589,0,0,1-2.586,3.842l2.764,5.093H77.043l-2.586-4.557h-.981v4.557H70V11.706Zm5.083,5.9c1.427,0,2.14-.447,2.14-1.519s-.624-1.519-2.14-1.519H73.566V17.6h1.516Zm-18.726-5.9h9.452v2.949H59.923V16.8h4.191v2.77H59.923v2.413h6.153v2.859h-9.72V11.706Zm-16.14,0h3.567v4.915h4.369V11.706h3.567V24.931H48.152V19.569H43.783v5.362H40.216V11.706Z" transform="translate(0 0)" fill="#430098"/></g></g></g></g></svg>