<svg xmlns="http://www.w3.org/2000/svg" viewBox="0 0 196 128"><defs><style>.cls-1{fill:#f0f2f2;}.cls-2{fill:#262626;}.cls-3{fill:#231f20;}.cls-4{fill:#2f2707;}.cls-5{fill:#de4c36;}.cls-6{fill:#0091e2;}</style></defs><g id="Layer_2" data-name="Layer 2"><g id="Layer_1-2" data-name="Layer 1"><path class="cls-1" d="M181.3,127.5H14.7a14.08,14.08,0,0,1-10-4.18A14.23,14.23,0,0,1,.5,113.23V14.77A14.25,14.25,0,0,1,4.66,4.68,14.08,14.08,0,0,1,14.7.5H181.3a14.08,14.08,0,0,1,10,4.18,14.23,14.23,0,0,1,4.16,10.09v98.46a14.23,14.23,0,0,1-4.16,10.09A14.08,14.08,0,0,1,181.3,127.5Z"/><path class="cls-2" d="M14.7,1A13.57,13.57,0,0,0,5,5a13.72,13.72,0,0,0-4,9.74v98.46A13.75,13.75,0,0,0,5,123a13.57,13.57,0,0,0,9.69,4H181.3a13.58,13.58,0,0,0,9.69-4,13.72,13.72,0,0,0,4-9.74V14.77A13.75,13.75,0,0,0,191,5a13.57,13.57,0,0,0-9.69-4H14.7m0-1H181.3A14.73,14.73,0,0,1,196,14.77v98.46A14.73,14.73,0,0,1,181.3,128H14.7A14.73,14.73,0,0,1,0,113.23V14.77A14.73,14.73,0,0,1,14.7,0Z"/><path class="cls-3" d="M129.82,97.44h7.39V93.75h7.39V79H129.82Zm7.39-14.77h3.69v7.38h-3.69ZM147.55,79V93.75h7.39V82.67h3.69V93.75h3.7V82.67H166V93.75h3.69V79ZM112.1,93.75h7.38V82.67h3.7V93.75h3.69V79H112.1Z"/><path class="cls-4" d="M62.2,83.29a2.12,2.12,0,0,0-2.37,1.82,1.77,1.77,0,0,0,0,.46c0,1.22.66,2.06,2.29,2.06a2.1,2.1,0,0,0,2.32-1.85,2.17,2.17,0,0,0,0-.26,2,2,0,0,0-1.8-2.23,1.69,1.69,0,0,0-.45,0ZM59.48,94.68A2.19,2.19,0,0,0,58.83,96c0,1,1.27,1.29,3,1.29,1.44,0,3.4-.1,3.4-1.44,0-.8-1-.84-2.13-.92Zm7.33-11.32a4,4,0,0,1,.91,2.51c0,2.75-2.15,4.37-5.27,4.37a8.08,8.08,0,0,1-2-.23l-.82,1.32,2.43.15c4.28.27,6.81.4,6.81,3.7,0,2.85-2.5,4.46-6.81,4.46-4.48,0-6.19-1.14-6.19-3.1A3.23,3.23,0,0,1,57.27,94a1.66,1.66,0,0,1-1.09-1.63,2.26,2.26,0,0,1,.72-1.52c.45-.47.94-.94,1.54-1.49a4,4,0,0,1-2.13-3.72c0-2.85,1.88-4.81,5.67-4.81a8.4,8.4,0,0,1,2.28.25h4.82v2.1Zm6.63-4.5A2,2,0,0,1,71.21,77a2.8,2.8,0,0,1,0-.41,2.24,2.24,0,0,1,4.48,0,2,2,0,0,1-1.83,2.24,2.94,2.94,0,0,1-.42,0ZM70.25,93.77v-2l1.26-.18c.35,0,.4-.12.4-.5V83.84c0-.27-.07-.45-.32-.52l-1.34-.47.27-2h5.13v10.3c0,.4,0,.45.4.5l1.26.17v2Zm16.85-1a9.79,9.79,0,0,1-4,1c-3,0-4.06-1.19-4.06-4V83.3c0-.15,0-.25-.2-.25H77.07V80.84c2.18-.24,3.05-1.34,3.32-4h2.35v3.52c0,.18,0,.25.2.25h3.49v2.48H82.74V89c0,1.47.35,2,1.69,2a6,6,0,0,0,2-.4l.67,2.18"/><path class="cls-5" d="M50.54,86.29,39.22,75a1.67,1.67,0,0,0-2.36,0h0L34.5,77.3l3,3A2,2,0,0,1,40,82.82l2.87,2.88a2,2,0,1,1-1.23,2.54,2,2,0,0,1,0-1.41L39,84.14v7.07a2,2,0,0,1,.9,2.66,1.8,1.8,0,0,1-.37.53,2,2,0,1,1-2.81-2.82,2,2,0,0,1,.65-.43V84a1.83,1.83,0,0,1-.65-.44,2,2,0,0,1-.43-2.17l-2.94-3-7.76,7.78a1.67,1.67,0,0,0,0,2.37L36.91,100a1.67,1.67,0,0,0,2.36,0h0L50.54,88.66a1.68,1.68,0,0,0,0-2.37"/><path class="cls-6" d="M94.22,32.32A1.18,1.18,0,0,0,93,33.46h0v6a6.68,6.68,0,1,0,2.46,5.38V33.54a1.25,1.25,0,0,0-.35-.87,1.33,1.33,0,0,0-.89-.35M92.67,46.17a4.12,4.12,0,0,1-5.39,2.22h0a4.14,4.14,0,0,1-2.16-5.44,4.11,4.11,0,0,1,7.56,0l0,0a4.06,4.06,0,0,1,0,3.17M108,39.92a6.65,6.65,0,1,0,0,9.41,6.72,6.72,0,0,0,2-4.53v-.23a6.62,6.62,0,0,0-.5-2.52A6.11,6.11,0,0,0,108,39.92m-.85,6.22a3.87,3.87,0,0,1-.89,1.3,4,4,0,0,1-1.3.89,4.13,4.13,0,0,1-5.42-2.19h0a4.13,4.13,0,0,1,2.2-5.4,4.18,4.18,0,0,1,3.22,0,4,4,0,0,1,1.3.89,4.24,4.24,0,0,1,.89,1.3,4.07,4.07,0,0,1,0,3.21m28.1-7a1.12,1.12,0,0,0-.1-.48,1.77,1.77,0,0,0-.26-.39,1.18,1.18,0,0,0-.4-.27A1.1,1.1,0,0,0,134,38a1.29,1.29,0,0,0-.67.18l-7,4.58V33.56a1.24,1.24,0,0,0-2.09-.9,1.22,1.22,0,0,0-.37.88V49.91a1.22,1.22,0,0,0,2,.91l.05,0a1.19,1.19,0,0,0,.35-.87V45.66l1.43-.93,5.44,6.1a1.07,1.07,0,0,0,.83.31.87.87,0,0,0,.47-.1,1.18,1.18,0,0,0,.4-.27,1.77,1.77,0,0,0,.26-.39,1.12,1.12,0,0,0,.1-.48,1.25,1.25,0,0,0-.33-.84l-5-5.69,4.93-3.21a1.08,1.08,0,0,0,.48-1m-20.43,2.44a4.14,4.14,0,0,1,1.33-.89,4.25,4.25,0,0,1,1.61-.33,4.1,4.1,0,0,1,1.43.25,4.37,4.37,0,0,1,1.26.76,1.26,1.26,0,0,0,.81.27,1.15,1.15,0,0,0,.89-.35,1.28,1.28,0,0,0,.35-.89,1.2,1.2,0,0,0-.44-.93,6.17,6.17,0,0,0-4.3-1.59A6.6,6.6,0,1,0,122,49.53a1.23,1.23,0,0,0,.39-.91,1.19,1.19,0,0,0-1.14-1.22h-.08a1.4,1.4,0,0,0-.79.25,4.38,4.38,0,0,1-1.24.77,4.34,4.34,0,0,1-1.43.24,3.75,3.75,0,0,1-1.61-.33,4.21,4.21,0,0,1-1.32-.89,4.14,4.14,0,0,1,0-5.83s0,0,0,0m44.86-2.84a2.43,2.43,0,0,0-.83-.5,5.28,5.28,0,0,0-1.1-.24,8.42,8.42,0,0,0-1.12-.07,6.14,6.14,0,0,0-2.21.4,6.76,6.76,0,0,0-1.93,1.07v-.24a1.23,1.23,0,0,0-2.46,0V49.94a1.24,1.24,0,0,0,1.28,1.19,1.23,1.23,0,0,0,1.18-1.19V44.59a4.08,4.08,0,0,1,.33-1.62,3.87,3.87,0,0,1,.89-1.3,4.1,4.1,0,0,1,2.92-1.22,4.63,4.63,0,0,1,1.61.29,1.17,1.17,0,0,0,.52.12.89.89,0,0,0,.48-.1,1.16,1.16,0,0,0,.39-.26,1.56,1.56,0,0,0,.27-.4,1.28,1.28,0,0,0,.1-.47,1,1,0,0,0-.33-.83m-11.42,3.25a6.74,6.74,0,0,0-6.1-4.06,6.59,6.59,0,1,0,4.3,11.59l0,0a1.14,1.14,0,0,0,.27-.31,1.26,1.26,0,0,0-.31-1.74,1.21,1.21,0,0,0-1.51.15s-.17.14-.17.16l0,0a3.89,3.89,0,0,1-2.61.91,4.1,4.1,0,0,1-2.48-.8,3.93,3.93,0,0,1-.91-.91,3.82,3.82,0,0,1-.58-1.18h9.31a1.23,1.23,0,0,0,.87-.36,1,1,0,0,0,.35-.86,6.64,6.64,0,0,0-.45-2.57m-10.08,1.32a3.61,3.61,0,0,1,.58-1.18,3.93,3.93,0,0,1,.91-.91,5.11,5.11,0,0,1,1.16-.6,4.31,4.31,0,0,1,2.61,0,4.21,4.21,0,0,1,2.67,2.69Zm17.3,6a.87.87,0,0,0-.85.87.86.86,0,1,0,.88-.87Zm0,1.53a.67.67,0,1,1,.64-.7h0v0a.63.63,0,0,1-.6.66h0Z"/><path class="cls-6" d="M155.67,50.24a.23.23,0,0,0,.16-.28.26.26,0,0,0-.07-.11.58.58,0,0,0-.29-.06,1.22,1.22,0,0,0-.33,0v.84h.18v-.33h.08a.17.17,0,0,1,.19.13l.06.2h.21a.36.36,0,0,1-.06-.2.2.2,0,0,0-.13-.21m-.24-.06h-.1v-.25h.1c.12,0,.18.06.18.12s-.08.15-.18.13M80.13,35.09a5.88,5.88,0,0,0-3.64-1,11.84,11.84,0,0,0-1.88.17,7.11,7.11,0,0,0-3.18-4.78l-.64-.37-.42.6a8.82,8.82,0,0,0-1.13,2.64,6.28,6.28,0,0,0,.74,5,8.86,8.86,0,0,1-3.24.79H37.39A1.38,1.38,0,0,0,36,39.52a21.16,21.16,0,0,0,1.28,7.56,11.41,11.41,0,0,0,4.47,5.81c2.19,1.34,5.76,2.11,9.8,2.11A30,30,0,0,0,57,54.5a22.35,22.35,0,0,0,7.11-2.59,19.27,19.27,0,0,0,4.84-4,26.42,26.42,0,0,0,4.73-8.17h.41a6.84,6.84,0,0,0,5-1.88,5.55,5.55,0,0,0,1.33-2l.18-.54Z"/><path class="cls-6" d="M40.12,37.3h3.93A.35.35,0,0,0,44.4,37h0V33.43a.34.34,0,0,0-.34-.35H40.12a.35.35,0,0,0-.35.34h0V37A.36.36,0,0,0,40.12,37.3Zm5.42,0h3.93a.35.35,0,0,0,.35-.35h0V33.43a.35.35,0,0,0-.34-.35H45.54a.35.35,0,0,0-.35.34h0V37a.37.37,0,0,0,.35.35m5.53,0H55a.35.35,0,0,0,.35-.35h0V33.43a.35.35,0,0,0-.35-.35H51.07a.35.35,0,0,0-.35.34h0V37a.33.33,0,0,0,.32.35Zm5.44,0h3.93a.35.35,0,0,0,.35-.35h0V33.43a.35.35,0,0,0-.34-.35H56.51a.35.35,0,0,0-.35.34h0V37a.35.35,0,0,0,.34.35Zm-11-5h3.93a.36.36,0,0,0,.35-.35V28.4a.35.35,0,0,0-.34-.35H45.54a.35.35,0,0,0-.35.34h0v3.52a.37.37,0,0,0,.35.35m5.53,0H55a.37.37,0,0,0,.35-.35V28.4a.35.35,0,0,0-.35-.35H51.07a.35.35,0,0,0-.35.34h0v3.52a.35.35,0,0,0,.34.35h0m5.44,0h3.93a.36.36,0,0,0,.35-.35V28.4a.35.35,0,0,0-.35-.35H56.51a.35.35,0,0,0-.35.34h0v3.52a.36.36,0,0,0,.35.35m0-5.05h3.93a.35.35,0,0,0,.35-.34h0V23.35a.35.35,0,0,0-.35-.35H56.51a.35.35,0,0,0-.35.34h0v3.52a.35.35,0,0,0,.35.35M62,37.3h3.93a.36.36,0,0,0,.36-.35h0V33.43a.35.35,0,0,0-.35-.35H62a.35.35,0,0,0-.35.34h0V37a.37.37,0,0,0,.35.35"/></g></g></svg>