<svg xmlns="http://www.w3.org/2000/svg" viewBox="0 0 196 128"><defs><style>.cls-1{fill:#f0f2f2;}.cls-2{fill:#262626;}.cls-3{fill:#8e714e;}.cls-3,.cls-4,.cls-5,.cls-6,.cls-7,.cls-8{fill-rule:evenodd;}.cls-4{fill:#442d22;}.cls-10,.cls-5{fill:#fff;}.cls-6{fill:#a6a385;}.cls-7{fill:#499d4a;}.cls-8{fill:#58aa50;}.cls-9{fill:#326690;}</style></defs><g id="Layer_2" data-name="Layer 2"><g id="Layer_1-2" data-name="Layer 1"><path class="cls-1" d="M181.3,127.5H14.7a14.08,14.08,0,0,1-10-4.18A14.23,14.23,0,0,1,.5,113.23V14.77A14.25,14.25,0,0,1,4.66,4.68,14.08,14.08,0,0,1,14.7.5H181.3a14.08,14.08,0,0,1,10,4.18,14.23,14.23,0,0,1,4.16,10.09v98.46a14.23,14.23,0,0,1-4.16,10.09A14.08,14.08,0,0,1,181.3,127.5Z"/><path class="cls-2" d="M14.7,1A13.57,13.57,0,0,0,5,5a13.72,13.72,0,0,0-4,9.74v98.46A13.75,13.75,0,0,0,5,123a13.57,13.57,0,0,0,9.69,4H181.3a13.58,13.58,0,0,0,9.69-4,13.72,13.72,0,0,0,4-9.74V14.77A13.75,13.75,0,0,0,191,5a13.57,13.57,0,0,0-9.69-4H14.7m0-1H181.3A14.73,14.73,0,0,1,196,14.77v98.46A14.73,14.73,0,0,1,181.3,128H14.7A14.73,14.73,0,0,1,0,113.23V14.77A14.73,14.73,0,0,1,14.7,0Z"/><path class="cls-3" d="M159.35,88.41c-.12,0-.25.31-.25.46,0,1.86,0,3.73,0,5.59a.19.19,0,0,0,.15.16c.39,0,1.31,0,2.1,0a5.53,5.53,0,0,0,2.1-.31,2.71,2.71,0,0,0,1.36-2.56c0-2.49-1.74-3.44-4.33-3.44a4.25,4.25,0,0,0-1.07,0ZM166,99.88c0-2.54-1.87-3.95-5.26-3.95-.15,0-1.23,0-1.48,0-.08,0-.18.08-.18.16,0,1.82,0,4.72,0,5.84a1.9,1.9,0,0,0,.85,1.39,6,6,0,0,0,2.23.31,3.5,3.5,0,0,0,3.79-3.18,3,3,0,0,0,0-.6ZM154.12,87c.26,0,1,.08,3,.08s3.36,0,5.18,0c2.23,0,5.31.79,5.31,4.12a4,4,0,0,1-2.66,3.6c-.08,0-.08.07,0,.1,2.15.53,4.05,1.87,4.05,4.38s-1.54,4-3.77,5a12.34,12.34,0,0,1-4.77.8c-1.31,0-4.83-.16-6.77-.1-.21-.08.18-1,.35-1.16a4.78,4.78,0,0,0,1.31-.2c.7-.18.77-.39.87-1.44.06-.9.06-4.08.06-6.33,0-3.1,0-5.21,0-6.24,0-.79-.31-1-.88-1.2s-1.16-.19-1.74-.26c-.13-.13.31-1,.46-1.1Zm-14.8,16a5.27,5.27,0,0,0,2.9.7,5.68,5.68,0,0,0,4.1-1.47c1.36-1.23,2.31-3.13,2.31-6.15a7.34,7.34,0,0,0-3.36-6.64,9,9,0,0,0-4.82-1.13,3.91,3.91,0,0,0-1.44.18.65.65,0,0,0-.25.41c-.06.51-.06,4.46-.06,6.77s0,5.72.06,6.1a1.59,1.59,0,0,0,.56,1.23ZM133.5,87c.49,0,2.36.08,3.26.08,1.61,0,2.77-.08,5.82-.08a9.49,9.49,0,0,1,6.26,2,8.32,8.32,0,0,1,2.85,6.57,8.6,8.6,0,0,1-3.54,7.38,11.85,11.85,0,0,1-7.36,2.08c-1.75,0-4.75,0-7.24-.08h0c-.13-.23.2-1.13.41-1.15a4.33,4.33,0,0,0,1.18-.23c.53-.21.64-.49.71-1.44.08-1.77.06-3.9.06-6.31,0-1.72,0-5.08,0-6.15-.08-.9-.46-1.13-1.23-1.29-.39-.07-.9-.18-1.62-.25-.1-.18.36-1,.49-1.13Z"/><path class="cls-4" d="M102.56,103.79a5.34,5.34,0,0,1-1.67-.43.75.75,0,0,1-.2-.42c0-.9,0-3.46,0-5.18a6.05,6.05,0,0,0-.83-3.43,3.46,3.46,0,0,0-3-1.54,6.87,6.87,0,0,0-3.9,1.84s-.23.21-.21-.07.06-.85.08-1.23a.63.63,0,0,0-.18-.54,17,17,0,0,1-4,1c-.62.13-.77.72-.13.93h0a5.89,5.89,0,0,1,1.52.66.81.81,0,0,1,.23.72c0,1.93,0,4.88,0,6.49,0,.64-.21.87-.67,1l0,0a7.62,7.62,0,0,1-1.08.2,1.55,1.55,0,0,0,0,1.16c.29,0,1.77-.08,3-.08,1.7,0,2.57.08,3,.08a1.67,1.67,0,0,0,.13-1.16,4.75,4.75,0,0,1-1.18-.18c-.46-.09-.59-.33-.61-.87-.06-1.36-.06-4.23-.06-6.18a1.27,1.27,0,0,1,.31-1,3.87,3.87,0,0,1,2.39-.87,2.7,2.7,0,0,1,1.77.59,2.52,2.52,0,0,1,.82,1.62c.13,1.1.08,3.28.08,5.18,0,1-.08,1.28-.46,1.41a5.35,5.35,0,0,1-1.18.23,1.44,1.44,0,0,0,0,1.15c.74,0,1.61-.07,2.9-.07,1.58,0,2.61.07,3,.07A1.8,1.8,0,0,0,102.56,103.79Zm7.1-9.8c-1.36,0-2.21,1.05-2.21,2.69s.75,3.6,2.85,3.6a2,2,0,0,0,1.33-.52,3.35,3.35,0,0,0,.82-2.36c0-2.13-1-3.41-2.8-3.41Zm-.18,11.34a2.1,2.1,0,0,0-1.1.28c-1.08.69-1.57,1.36-1.57,2.15a2.3,2.3,0,0,0,.9,1.85,4.56,4.56,0,0,0,3.08,1c2.62,0,3.77-1.41,3.77-2.8a2,2,0,0,0-1.48-2,10.71,10.71,0,0,0-3.6-.46Zm.18,6.67a5.73,5.73,0,0,1-3.67-1.08,3.37,3.37,0,0,1-1.36-2.54,2,2,0,0,1,.51-1.28,13.84,13.84,0,0,1,2.36-1.9c.06,0,.08,0,.08-.1a.17.17,0,0,0-.1-.13,2.41,2.41,0,0,1-1.66-1.62v0a.36.36,0,0,1,.15-.46c.18-.13.43-.28.72-.46a11.37,11.37,0,0,0,1.18-.77.17.17,0,0,0,0-.15.17.17,0,0,0-.1-.13,3.74,3.74,0,0,1-2.69-3.93,3.87,3.87,0,0,1,1.64-3.23,7.62,7.62,0,0,1,3.69-1.26h.08a7.85,7.85,0,0,1,2.82.62,4.71,4.71,0,0,0,1.67.26,2.23,2.23,0,0,0,1.79-.67,1.29,1.29,0,0,1,.1.51,2,2,0,0,1-.33,1.18,1.48,1.48,0,0,1-1.13.49h-.13a5.16,5.16,0,0,1-.67-.1l-.1,0s0,.1,0,.18l0,0a10.37,10.37,0,0,1,.15,1.1A4.17,4.17,0,0,1,113,100.3a5.91,5.91,0,0,1-3,1.16l-.36,0c-.13,0-.31,0-.34,0h0c-.21,0-.72.31-.72.74s.23.85,1.33.93c.23,0,.46,0,.72,0a22.1,22.1,0,0,1,4.13.51,2.87,2.87,0,0,1,1.92,2.74c0,1.9-1.35,3.67-3.61,4.78a8.37,8.37,0,0,1-3.41.74Zm14.62-17.88a2.45,2.45,0,0,0-1.39.38c-1,.62-1.51,1.85-1.51,3.64,0,3.36,1.69,5.72,4.1,5.72a2.54,2.54,0,0,0,1.77-.61c.74-.62,1.13-1.85,1.13-3.57,0-3.33-1.67-5.56-4.1-5.56Zm.46,11c-4.36,0-5.92-3.21-5.92-6.21A5.54,5.54,0,0,1,121.35,94a7.82,7.82,0,0,1,3.93-1.16A5.49,5.49,0,0,1,131,98.18a4.17,4.17,0,0,1,0,.5,6,6,0,0,1-2.69,5.32,7.11,7.11,0,0,1-3.51,1.1ZM79,94.12a2.35,2.35,0,0,0-1.39.39c-1,.61-1.51,1.84-1.51,3.64,0,3.36,1.69,5.72,4.1,5.72a2.63,2.63,0,0,0,1.77-.62c.74-.61,1.12-1.84,1.12-3.56C83.14,96.35,81.5,94.12,79,94.12Zm.46,11c-4.36,0-5.93-3.21-5.93-6.21A5.54,5.54,0,0,1,76.11,94,7.8,7.8,0,0,1,80,92.86a5.51,5.51,0,0,1,5.67,5.32,4.34,4.34,0,0,1,0,.51A6,6,0,0,1,83,104a7,7,0,0,1-3.51,1.1Zm-29.32-.26a1.08,1.08,0,0,1-.08-.59.84.84,0,0,1,.08-.38,10.77,10.77,0,0,0,1.13-.23c.51-.13.71-.41.74-1,.08-1.54.08-4.47.05-6.49V96a.77.77,0,0,0-.28-.71,5.85,5.85,0,0,0-1.54-.67c-.23-.08-.38-.2-.36-.36s.16-.33.49-.38a18.8,18.8,0,0,0,3.92-1,.59.59,0,0,1,.13.41l0,.28c0,.31,0,.63-.06,1a.21.21,0,0,0,.21.18.38.38,0,0,0,.15,0,7.32,7.32,0,0,1,3.9-1.75,3.34,3.34,0,0,1,3,1.82.18.18,0,0,0,.18.1.15.15,0,0,0,.15-.07,7.83,7.83,0,0,1,4-1.85c2.39,0,3.8,1.77,3.8,4.77,0,.85,0,2,0,3s0,1.72,0,2.31a.79.79,0,0,0,.46.61,5.5,5.5,0,0,0,1.49.36h0a2,2,0,0,1-.15,1c-.21,0-.43,0-.64,0-.65,0-1.3,0-2,0-1.59,0-2.41,0-3.21.08a2.69,2.69,0,0,1,0-1,6.64,6.64,0,0,0,1-.23c.51-.15.64-.38.66-1,0-.49.1-4.64,0-5.64a2.52,2.52,0,0,0-2.62-2.23,4.53,4.53,0,0,0-2.61,1,.4.4,0,0,0-.1.26v0a12.31,12.31,0,0,1,.1,2.1v1.67c0,1.15,0,2.23,0,3a.75.75,0,0,0,.61.8l.39.08.82.18a1.46,1.46,0,0,1,0,.72.46.46,0,0,1-.1.25c-1,0-2,0-3.08,0-.38,0-1,0-1.61,0s-.9,0-1.16,0a1.52,1.52,0,0,1-.07-.52A.74.74,0,0,1,58,104a1.36,1.36,0,0,1,.36,0l.82-.15c.43-.13.59-.36.61-.93a46,46,0,0,0,0-5.87,2.41,2.41,0,0,0-2.52-2.23,4.7,4.7,0,0,0-2.61,1,.78.78,0,0,0-.23.59v1.51c0,1.85,0,4.16,0,5.16a.79.79,0,0,0,.72.79,3.83,3.83,0,0,0,.59.1l.46.08a2.12,2.12,0,0,1-.08,1l-.92,0a39.08,39.08,0,0,0-4,0,7.57,7.57,0,0,0-1-.06Z"/><path class="cls-5" d="M36.74,111l-1.05-.35s.13-5.29-1.8-5.67c-1.28-1.46.21-62.18,4.82-.2a3.74,3.74,0,0,0-1.87,2.13A19.28,19.28,0,0,0,36.74,111Z"/><path class="cls-6" d="M36.74,111l-1.05-.35s.13-5.29-1.8-5.67c-1.28-1.46.21-62.18,4.82-.2a3.74,3.74,0,0,0-1.87,2.13A19.28,19.28,0,0,0,36.74,111Z"/><path class="cls-5" d="M37.31,106.32s9.2-6,7-18.65c-2.08-9.16-7-12.16-7.51-13.31a12.69,12.69,0,0,1-1.16-2.26l.39,25.47s-.8,7.8,1.23,8.75"/><path class="cls-7" d="M37.31,106.32s9.2-6,7-18.65c-2.08-9.16-7-12.16-7.51-13.31a12.69,12.69,0,0,1-1.16-2.26l.39,25.47s-.8,7.8,1.23,8.75"/><path class="cls-5" d="M35.15,106.15S26.51,100.34,27,90.1s6.59-15.27,7.77-16.18A2.33,2.33,0,0,0,35.64,72c.54,1.13.44,17,.51,18.88C36.38,98.09,35.74,104.79,35.15,106.15Z"/><path class="cls-8" d="M35.15,106.15S26.51,100.34,27,90.1s6.59-15.27,7.77-16.18A2.33,2.33,0,0,0,35.64,72c.54,1.13.44,17,.51,18.88C36.38,98.09,35.74,104.79,35.15,106.15Z"/><path class="cls-9" d="M138.49,26.76c-2.18,1.18-2.09,5,.28,5.91,2.54.91,5.27,1,7.81,1.64a2.15,2.15,0,0,1,1.55,1.09A2.66,2.66,0,0,1,146.92,39l-.15.07a10.07,10.07,0,0,1-6.55-.18,3.57,3.57,0,0,1-2.09-3.18,12.54,12.54,0,0,0-1.73.09,4.76,4.76,0,0,0,1.37,3.46c1.63,1.27,3.72,1.45,5.72,1.54a9.92,9.92,0,0,0,5.37-1.18c1.81-1.27,2-4.64-.19-5.73-2-1-4.27-1.09-6.36-1.54a9.41,9.41,0,0,1-3.09-1,2.27,2.27,0,0,1,.05-3.21,2.45,2.45,0,0,1,.86-.52,10,10,0,0,1,6.09.09A3.11,3.11,0,0,1,148,30.31h1.72a3.77,3.77,0,0,0-1.27-3C147,26.13,145,26,143.31,26a9,9,0,0,0-4.82.72Z"/><path d="M75.84,27.22a5.26,5.26,0,0,0-3.46-1.09c-2.63,0-5.27.09-7.91.09v14h1.37c0-2-.09-4,0-5.91h6.72c1.64-.09,3.55-.81,4.18-2.45A4.32,4.32,0,0,0,75.84,27.22Zm-.73,4.37c-.46,1.18-1.82,1.54-3,1.63-2.09.09-4.18,0-6.18,0V27.41h6a3.49,3.49,0,0,1,2.82,1A3.55,3.55,0,0,1,75.11,31.59Z"/><path class="cls-9" d="M168.59,26.22v14h12.08V39c-3.45-.09-6.9,0-10.45-.09V26.13A8.92,8.92,0,0,1,168.59,26.22Z"/><path class="cls-10" d="M100.92,28v3H99.1v.91h1.82v6.36a1.87,1.87,0,0,0,.72,1.64,6.26,6.26,0,0,0,3.18.27v-.91a3.27,3.27,0,0,1-2.09-.18c-.45-.27-.36-.82-.45-1.27V31.91h2.45a3.33,3.33,0,0,0-.09-1h-2.45v-3a5.44,5.44,0,0,1-1.27.09ZM89.61,31.48a2.28,2.28,0,0,0-.49,3.16,2.33,2.33,0,0,0,.77.66c2.09.73,4.45.54,6.63,1.18A1.43,1.43,0,0,1,96.7,39a7.71,7.71,0,0,1-4.72.36,2.32,2.32,0,0,1-2.09-2.09H88.34a3.59,3.59,0,0,0,1.09,2.27,8,8,0,0,0,4.09.91,8.51,8.51,0,0,0,4.27-.82,2.26,2.26,0,0,0,.82-3.09,3.06,3.06,0,0,0-2.09-1.18C94.79,35,93,35,91.25,34.66a1.42,1.42,0,0,1-1.18-1.27c0-.91,1-1.36,1.81-1.55a7.55,7.55,0,0,1,4,.28c.73.27.91,1,1.09,1.72h1.55a2.87,2.87,0,0,0-1.09-2.18,7.19,7.19,0,0,0-4.55-.81A5.18,5.18,0,0,0,89.61,31.48ZM121.09,31a3.31,3.31,0,0,0-1.36,1.55V31h-1.45c-.09,3.09,0,6.09,0,9.18h1.36V35.49a3.68,3.68,0,0,1,1.28-3c1-.73,2.27-.55,3.45-.55V30.76A6.77,6.77,0,0,0,121.09,31Z"/><path class="cls-9" d="M153.68,26.93a12.22,12.22,0,0,1,6.45-1,8,8,0,0,1,5.55,2.55A7.4,7.4,0,0,1,167,35.57a6.9,6.9,0,0,1-2.27,3.27c.81.55,1.63,1.09,2.45,1.73-.36.36-.73.63-1.09,1-.82-.55-1.64-1.18-2.45-1.64a9.11,9.11,0,0,0-2,.55,14.86,14.86,0,0,1-5.64,0A7.58,7.58,0,0,1,151,37.11a7.84,7.84,0,0,1-.73-5.9,6.86,6.86,0,0,1,3.46-4.28Zm2.72.37A6.08,6.08,0,0,0,152,31a6.53,6.53,0,0,0,1.09,6.28,7,7,0,0,0,5.37,2.18,7.38,7.38,0,0,0,6-2.27,6.28,6.28,0,0,0-.91-8.64c-2-1.73-4.73-1.82-7.19-1.27Z"/><path d="M100.91,28h1.46v3h2.45a4.14,4.14,0,0,0,.09,1h-2.45V37.9c0,.46,0,1,.45,1.27a5.28,5.28,0,0,0,2.09.19v.91a6.26,6.26,0,0,1-3.18-.28,1.48,1.48,0,0,1-.73-1.63V32H99.28v-.91h1.81a18.72,18.72,0,0,1-.18-3.09Zm-15,3.49a8.71,8.71,0,0,0-5.46-.72,4.68,4.68,0,0,0-3.63,2.54,5.53,5.53,0,0,0,.09,4.64A5,5,0,0,0,81,40.39c2.09.18,4.46-.09,6-1.72C88.68,36.57,88.32,32.85,85.86,31.48Zm-.27,6.82a4.38,4.38,0,0,1-3.09,1.18,4.82,4.82,0,0,1-3.55-1A4.38,4.38,0,0,1,78,34a3.64,3.64,0,0,1,3.09-2.36A5.9,5.9,0,0,1,85,32.3a3.25,3.25,0,0,1,1.45,2.55A3.91,3.91,0,0,1,85.59,38.3Z"/><path d="M89.61,31.49a6.37,6.37,0,0,1,3.19-.82,7,7,0,0,1,4.54.82,2.82,2.82,0,0,1,1.09,2.18H96.89A2,2,0,0,0,95.8,32a6.68,6.68,0,0,0-4-.28c-.82.09-1.82.55-1.82,1.55-.09.63.54,1.18,1.18,1.27,1.73.45,3.54.36,5.27.73a3.43,3.43,0,0,1,2.09,1.18,2.24,2.24,0,0,1-.78,3.07l0,0a8.66,8.66,0,0,1-4.28.82,8,8,0,0,1-4.09-.91,3.09,3.09,0,0,1-1.09-2.28H89.8a2.16,2.16,0,0,0,2.09,2.09,8.35,8.35,0,0,0,4.72-.36,1.43,1.43,0,0,0,.5-2,1.45,1.45,0,0,0-.68-.59c-2.18-.63-4.54-.45-6.63-1.18C88.34,34.67,88.34,32.3,89.61,31.49Zm19.3-.71a8.57,8.57,0,0,1,4.55.09,6.74,6.74,0,0,1,2.09,1.46c0-.55.09-1,.09-1.46H117c.09,2.82,0,5.64.09,8.46A3.93,3.93,0,0,1,116,42.6a6.45,6.45,0,0,1-4.45,1.27,9,9,0,0,1-4.09-.73A3.28,3.28,0,0,1,106,40.87h1.37c.27.64.54,1.36,1.18,1.64a7.48,7.48,0,0,0,3.18.45c1.18-.09,2.55-.27,3.27-1.27s.55-2.27.55-3.45c-1.46,1.54-3.73,1.81-5.73,1.54a5.53,5.53,0,0,1-3.45-1.64,5.17,5.17,0,0,1-.73-4.45A4.44,4.44,0,0,1,108.91,30.78Zm1.18.91a3.76,3.76,0,0,0-2.63,1.55,4.59,4.59,0,0,0-.28,3.63,3.76,3.76,0,0,0,3,2c1.55.18,3.37,0,4.46-1.18a3.85,3.85,0,0,0-.55-5.36,5.48,5.48,0,0,0-4-.64Zm11-.66a8.28,8.28,0,0,1,3.28-.36v1.18c-1.19,0-2.46-.18-3.46.55a3.64,3.64,0,0,0-1.27,3v4.72h-1.36c-.09-3.06-.1-6.12,0-9.18h1.45v1.55A3.54,3.54,0,0,1,121.09,31Zm3.55,1.91a5.45,5.45,0,0,1,4.54-2.27c1.82-.09,3.82.18,5.09,1.54a5.2,5.2,0,0,1,1.37,3.64H125.37a3.8,3.8,0,0,0,1.09,2.54,5.51,5.51,0,0,0,5,.91,3.38,3.38,0,0,0,2.36-2.18h1.55a4.52,4.52,0,0,1-3.37,3,8.16,8.16,0,0,1-6.36-.91c-1.82-1.27-2.18-4.27-1-6.27Zm2.64-.73a3.69,3.69,0,0,0-1.73,2.73h8.72a3.2,3.2,0,0,0-.72-1.82,5.13,5.13,0,0,0-6.28-.91Z"/><path class="cls-10" d="M39.2,16.72a17.9,17.9,0,0,0-5.27-.09,9.84,9.84,0,0,0-2.82,1.07,19.13,19.13,0,0,0-8.91-.89A7.5,7.5,0,0,0,17,20.26a12.35,12.35,0,0,0-1.45,7.44,52.86,52.86,0,0,0,1.9,8.4A27.56,27.56,0,0,0,20.38,43a5.89,5.89,0,0,0,3.27,2.74,3.89,3.89,0,0,0,3.27-.8,3.94,3.94,0,0,0,1.64,1,7.5,7.5,0,0,0,5.36-.09c.09,2.3,0,4.69.91,6.81a4.76,4.76,0,0,0,1.91,2.66,5.26,5.26,0,0,0,3.64.62,9.72,9.72,0,0,0,3.18-1.07,5.75,5.75,0,0,0,2.27-2.56,19.33,19.33,0,0,0,1.27-7.52,9.65,9.65,0,0,0,7.09-2.13,2.61,2.61,0,0,0,1.09-2.56,2.14,2.14,0,0,0-2.18-1.42c-1,.09-1.91.35-2.91.35a36,36,0,0,0,4.64-11.85,11.62,11.62,0,0,0,0-5.31,5.82,5.82,0,0,0-1.73-2.48,12.37,12.37,0,0,0-6.18-3.1A16.28,16.28,0,0,0,39.2,16.72Z"/><path class="cls-10" d="M39.11,17.81a15,15,0,0,1,8.36-.27A10.6,10.6,0,0,1,53,21.17a4.17,4.17,0,0,1,.73,2.56,16.11,16.11,0,0,1-.63,4.68A38.19,38.19,0,0,1,48,39.81a7.75,7.75,0,0,0,4,.09c.54-.09,1.27-.27,1.63.26a1.2,1.2,0,0,1-.36,1.5,8.51,8.51,0,0,1-7.36,1.86c-.28,2.21-.55,4.42-.91,6.71a5.18,5.18,0,0,1-1.64,3.36A6.58,6.58,0,0,1,40,54.92a4.21,4.21,0,0,1-3.54-.8,5.28,5.28,0,0,1-1.73-3.45A53.71,53.71,0,0,1,34.47,44a5.88,5.88,0,0,1-4,1.32,4.72,4.72,0,0,1-2.91-1,.89.89,0,0,1,0-1.28.81.81,0,0,1,.14-.12c.81-.62,1.91-.53,2.81-.88.73-.18,1.1-.89,1.46-1.33a6.19,6.19,0,0,1-2.27-.62c-1.1,1.15-2.18,2.38-3.18,3.53A2.76,2.76,0,0,1,24,44.76,4.26,4.26,0,0,1,21.48,43a20.87,20.87,0,0,1-2.64-5.56,60.15,60.15,0,0,1-2.27-9.63A10.29,10.29,0,0,1,18,20.64,7,7,0,0,1,23.2,17.9a18.79,18.79,0,0,1,8,1.15A9.83,9.83,0,0,1,38.47,18c.28-.18.46-.09.64-.18Zm2,.71c.54.35,1.09.62,1.63,1a13.17,13.17,0,0,1,4.91,5.74,4.38,4.38,0,0,1,.55,2.12c0,1.5-.55,3-.37,4.51a12.42,12.42,0,0,1,.09,4.86,11.94,11.94,0,0,1-.63,1.59.62.62,0,0,0,.09.26l.54-.8a34.88,34.88,0,0,0,3.91-8.83,20.09,20.09,0,0,0,.82-5.22,3.5,3.5,0,0,0-.54-2.11,9.67,9.67,0,0,0-3.91-2.83,13.86,13.86,0,0,0-7.09-.26Zm-6.36.17a6.46,6.46,0,0,0-4.37,2.48,12.51,12.51,0,0,0-2.18,6.36,7.8,7.8,0,0,1,4.64-.89,2.83,2.83,0,0,1,2,2.13,14,14,0,0,1,.27,6.1c-.36,1.59-1.36,3-1.73,4.68a3,3,0,0,1,1.28.26A2.27,2.27,0,0,1,35.84,42a52.4,52.4,0,0,0,.09,6.63,14.09,14.09,0,0,0,.36,2.74,3.4,3.4,0,0,0,2.27,2.38,6.86,6.86,0,0,0,3.73-.7,3.78,3.78,0,0,0,1.82-2.92c.36-2.38.64-4.77.91-7.16a5,5,0,0,1,.45-2.56c.28-.53.82-.7,1.28-1-.37-.53-.82-1.06-1.19-1.59-1.18-2.47-2.81-4.77-3.36-7.42a3.36,3.36,0,0,1,.91-3.27c1.09-.88,2.54-.8,3.91-.8a12.73,12.73,0,0,0-4.09-5.57,11.87,11.87,0,0,0-8.18-2.12Zm-12.09.18a5.62,5.62,0,0,0-3.91,2.56,9.85,9.85,0,0,0-1,6,50.05,50.05,0,0,0,1.82,8,26.29,26.29,0,0,0,2.72,6.36,3.67,3.67,0,0,0,1.82,1.68c.73.18,1.27-.44,1.73-.88.91-1.15,2-2.21,3-3.36a6,6,0,0,1-2-5.12A23.37,23.37,0,0,0,27,29.65a16.25,16.25,0,0,1,.82-6.19,9.87,9.87,0,0,1,2.36-4,19.78,19.78,0,0,0-7.54-.62ZM43.83,28a2.29,2.29,0,0,0-.54,2.39c.54,2.56,2.09,4.68,3.18,7,.91-1.68.36-3.63.18-5.48A22.48,22.48,0,0,1,47,27.53a5.73,5.73,0,0,0-3.19.44Zm-15.72,1c0,1.24.09,2.48,0,3.63A9.43,9.43,0,0,0,28,35.75a4.33,4.33,0,0,0,4.18,3.53,15.18,15.18,0,0,1,1.09-2.83c1.27-2.38,1-5.12.36-7.6a1.61,1.61,0,0,0-1.54-1.23,7.93,7.93,0,0,0-4,1.32ZM46.56,40.87a1.72,1.72,0,0,0-.36,1.33,6.66,6.66,0,0,0,2.63.17,6.29,6.29,0,0,0,3.64-1.5c-1.55.18-3.27.53-4.82-.17A1.18,1.18,0,0,0,46.56,40.87Zm-15,1.77c-.91.53-2,.44-2.82.88a4.8,4.8,0,0,0,5.73-1.06,1.08,1.08,0,0,0-.82-1.76c-.9.52-1.27,1.5-2.09,1.94Z"/><path class="cls-10" d="M44.2,28.31A2.15,2.15,0,0,1,46,28.13a1.09,1.09,0,0,1-1.16,1,1.07,1.07,0,0,1-.39-.1C44.29,29,43.93,28.59,44.2,28.31Zm-12.82.08a1.79,1.79,0,0,1,1.64.28c.27.27,0,.72-.27.81A1.15,1.15,0,0,1,31,28.76.4.4,0,0,1,31.38,28.39Z"/><path class="cls-9" d="M40.38,18.56a12.29,12.29,0,0,1,7,.36,8.94,8.94,0,0,1,3.9,2.91A3.14,3.14,0,0,1,51.83,24,22.16,22.16,0,0,1,51,29.38a36.78,36.78,0,0,1-3.91,9.09l-.54.81a1.43,1.43,0,0,0-.09-.27,12.45,12.45,0,0,0,.63-1.63,13.14,13.14,0,0,0-.09-5c-.18-1.55.37-3.1.37-4.64a4.86,4.86,0,0,0-.55-2.18,14.13,14.13,0,0,0-4.91-5.91A6.93,6.93,0,0,0,40.38,18.56Z"/><path class="cls-9" d="M34.74,18.74a11.49,11.49,0,0,1,8.09,2.11,12,12,0,0,1,4.09,5.56c-1.27,0-2.81-.09-3.9.79a3.3,3.3,0,0,0-.91,3.26c.54,2.74,2.18,5,3.36,7.41a6.57,6.57,0,0,0,1.18,1.59,2.31,2.31,0,0,0-1.27,1A7.91,7.91,0,0,0,44.93,43c-.28,2.38-.55,4.77-.91,7.15A3.77,3.77,0,0,1,42.2,53a6.69,6.69,0,0,1-3.73.71,3.1,3.1,0,0,1-2.27-2.38,14,14,0,0,1-.36-2.73c-.1-2.2-.1-4.41-.1-6.62a2.25,2.25,0,0,0-1.18-2.2,2.92,2.92,0,0,0-1.27-.26c.36-1.59,1.36-3,1.73-4.67a13.77,13.77,0,0,0-.28-6.09,2.81,2.81,0,0,0-2-2.11,7.13,7.13,0,0,0-4.63.88,12.38,12.38,0,0,1,2.18-6.35A7.25,7.25,0,0,1,34.74,18.74Z"/><path class="cls-9" d="M22.66,18.92a16.36,16.36,0,0,1,7.54.73,10.31,10.31,0,0,0-2.36,4.09A18.53,18.53,0,0,0,27,30.1a19.24,19.24,0,0,1-.18,4.55,6.17,6.17,0,0,0,2,5.27c-1,1.18-2,2.27-3,3.45-.46.55-1,1.1-1.73.91a3.76,3.76,0,0,1-1.82-1.72A27.81,27.81,0,0,1,19.57,36a48.81,48.81,0,0,1-1.82-8.18,10.25,10.25,0,0,1,1-6.18A5.79,5.79,0,0,1,22.66,18.92Zm21.17,9A4.82,4.82,0,0,1,47,27.42a23.73,23.73,0,0,0-.37,4.45c.18,1.82.64,3.82-.18,5.64-1.18-2.37-2.73-4.55-3.18-7.19A3,3,0,0,1,43.83,27.87Zm.37.37c-.27.27,0,.63.27.72a1.09,1.09,0,0,0,1.45-.52,1.24,1.24,0,0,0,.1-.39,2.21,2.21,0,0,0-1.83.18Z"/><path class="cls-9" d="M28.11,28.84A6.94,6.94,0,0,1,32,27.56a1.64,1.64,0,0,1,1.54,1.28,11.46,11.46,0,0,1-.36,7.81,16.21,16.21,0,0,0-1.09,2.91,4.45,4.45,0,0,1-4.18-3.63A12.78,12.78,0,0,1,28,32.66,27.08,27.08,0,0,0,28.11,28.84Zm3.27-.55c-.18.09-.36.18-.36.37a1.14,1.14,0,0,0,1.36.87,1.31,1.31,0,0,0,.37-.15c.27-.18.54-.54.27-.82a1.78,1.78,0,0,0-1.64-.27ZM45.71,40.85c.28-.18.73-.45,1.09-.18,1.46.82,3.18.36,4.82.18A6.52,6.52,0,0,1,48,42.4a5.12,5.12,0,0,1-2.63-.18A1.86,1.86,0,0,1,45.71,40.85ZM31.57,42.64c.81-.45,1.18-1.45,2-2a1.1,1.1,0,0,1,.81,1.82,4.59,4.59,0,0,1-5.72,1.09A18.85,18.85,0,0,0,31.57,42.64Z"/><path d="M39.2,16.72a18.72,18.72,0,0,1,7.63-.44A12.09,12.09,0,0,1,53,19.38a5.82,5.82,0,0,1,1.73,2.48,11.62,11.62,0,0,1,0,5.31A38,38,0,0,1,50.11,39c1,0,1.9-.26,2.9-.35a2.1,2.1,0,0,1,2.19,1.42,2.64,2.64,0,0,1-1.1,2.56,10.57,10.57,0,0,1-7.18,2.13c-.18,2.56-.18,5.13-1.27,7.52a6.24,6.24,0,0,1-2.27,2.56,8.2,8.2,0,0,1-3.18,1.06,5.31,5.31,0,0,1-3.64-.61,4.76,4.76,0,0,1-1.91-2.66c-.82-2.21-.72-4.51-.91-6.81a7.5,7.5,0,0,1-5.36.09,3.74,3.74,0,0,1-1.63-1,3.92,3.92,0,0,1-3.28.8A6.12,6.12,0,0,1,20.2,43a27.4,27.4,0,0,1-2.91-6.9,51.22,51.22,0,0,1-1.91-8.41,11.7,11.7,0,0,1,1.46-7.43A8.08,8.08,0,0,1,22,16.81a19,19,0,0,1,8.91.8,10.78,10.78,0,0,1,2.82-1.06A18.8,18.8,0,0,1,39.2,16.72Zm-.09,1.07c-.18.08-.46-.09-.64-.09a9.83,9.83,0,0,0-7.27,1.06,18.79,18.79,0,0,0-8-1.15A7.16,7.16,0,0,0,18,20.35a11.11,11.11,0,0,0-1.45,7.17,55.16,55.16,0,0,0,2.27,9.56,24.47,24.47,0,0,0,2.63,5.57A4,4,0,0,0,24,44.42a2.94,2.94,0,0,0,2.45-1.15c1.09-1.24,2.09-2.39,3.18-3.54a7.22,7.22,0,0,0,2.28.62c-.46.53-.82,1.15-1.46,1.33-.91.35-2,.26-2.82.88a.91.91,0,0,0-.22,1.27l.13.15a4.78,4.78,0,0,0,2.91,1,5.46,5.46,0,0,0,4-1.33,58.17,58.17,0,0,0,.27,6.73,5,5,0,0,0,1.73,3.45,4.54,4.54,0,0,0,3.55.8,8.53,8.53,0,0,0,3.36-1.33A5.4,5.4,0,0,0,45,49.91c.36-2.21.63-4.42.9-6.72a8.8,8.8,0,0,0,7.37-1.87c.36-.35.82-1.06.36-1.5s-1.09-.35-1.63-.26a6.23,6.23,0,0,1-4-.09,38.36,38.36,0,0,0,5.09-11.41,20.13,20.13,0,0,0,.63-4.69A4.93,4.93,0,0,0,53,20.8a10.67,10.67,0,0,0-5.55-3.63A20.54,20.54,0,0,0,39.11,17.79Z"/></g></g></svg>