<svg xmlns="http://www.w3.org/2000/svg" viewBox="0 0 196 128"><defs><style>.cls-1{fill:#f0f2f2;}.cls-2{fill:#262626;}.cls-3,.cls-4{fill:#035bda;}.cls-3{fill-rule:evenodd;}.cls-5{fill:#ea4335;}.cls-6{fill:#4285f4;}.cls-7{fill:#34a853;}.cls-8{fill:#fbbc05;}.cls-9{fill:#5f6368;}.cls-10{fill:#430098;}</style></defs><g id="Layer_2" data-name="Layer 2"><g id="Layer_1-2" data-name="Layer 1"><path class="cls-1" d="M181.3,127.5H14.7a14.08,14.08,0,0,1-10-4.18A14.23,14.23,0,0,1,.5,113.23V14.77A14.25,14.25,0,0,1,4.66,4.68,14.08,14.08,0,0,1,14.7.5H181.3a14.08,14.08,0,0,1,10,4.18,14.23,14.23,0,0,1,4.16,10.09v98.46a14.23,14.23,0,0,1-4.16,10.09A14.08,14.08,0,0,1,181.3,127.5Z"/><path class="cls-2" d="M14.7,1A13.57,13.57,0,0,0,5,5a13.72,13.72,0,0,0-4,9.74v98.46A13.75,13.75,0,0,0,5,123a13.57,13.57,0,0,0,9.69,4H181.3a13.58,13.58,0,0,0,9.69-4,13.72,13.72,0,0,0,4-9.74V14.77A13.75,13.75,0,0,0,191,5a13.57,13.57,0,0,0-9.69-4H14.7m0-1H181.3A14.73,14.73,0,0,1,196,14.77v98.46A14.73,14.73,0,0,1,181.3,128H14.7A14.73,14.73,0,0,1,0,113.23V14.77A14.73,14.73,0,0,1,14.7,0Z"/><path class="cls-3" d="M44.79,93.21l-4.21,8.45L48,110.22l-13.77,1.56,21.37.22L44.79,93.21ZM44,90l-9.68,8L27.1,110l6.12-.61Z"/><path class="cls-4" d="M64.1,98.35l-4.63,11.34H61l1.2-3.18h5.12l1.28,3.18h1.57L65.56,98.35Zm.69,1.37h0a3.84,3.84,0,0,0,.19.76l1.89,4.84H62.72l1.87-4.84a3.86,3.86,0,0,0,.2-.76Zm35.77,1.68a3.75,3.75,0,0,0-2.83,1.2,4.22,4.22,0,0,0-1.14,3.07,4.34,4.34,0,0,0,1,3.11,3.76,3.76,0,0,0,2.87,1.1,5.27,5.27,0,0,0,3-.77v-1.22a4.45,4.45,0,0,1-2.67.9,2.75,2.75,0,0,1-2-.74A2.9,2.9,0,0,1,98,106h6.08v-.68a4.11,4.11,0,0,0-.93-2.85A3.32,3.32,0,0,0,100.56,101.4Zm-6.16,0a2.15,2.15,0,0,0-1.36.48,2.9,2.9,0,0,0-.9,1.33h0v-1.67H90.73v8.1h1.38v-4.12a3.46,3.46,0,0,1,.59-2.14,1.79,1.79,0,0,1,1.48-.78,1.66,1.66,0,0,1,1,.26v-1.35a2.26,2.26,0,0,0-.82-.11Zm-22.79.14v1.11h4.61l-5.1,6.59v.4H78.2v-1.1h-5l5.1-6.63v-.37Zm8.72,0v4.84c0,2.3,1,3.45,3.08,3.45a2.85,2.85,0,0,0,2.65-1.47h0v1.28h1.38v-8.1H86.1v4.67a2.6,2.6,0,0,1-.66,1.84,2.16,2.16,0,0,1-1.66.7c-1.39,0-2.08-.86-2.08-2.57v-4.64Zm20.21.9a2,2,0,0,1,1.57.63,2.5,2.5,0,0,1,.58,1.74H98a2.87,2.87,0,0,1,.84-1.71,2.29,2.29,0,0,1,1.66-.66Z"/><path class="cls-5" d="M43.62,63.8h.8l2.27-2.27.11-1a10.22,10.22,0,0,0-16.64,5,1.16,1.16,0,0,1,.8,0l4.55-.75s.23-.39.35-.36a5.66,5.66,0,0,1,7.77-.59Z"/><path class="cls-6" d="M49.93,65.52a10.12,10.12,0,0,0-3.09-4.95l-3.19,3.17a5.64,5.64,0,0,1,2.08,4.47v.56a2.83,2.83,0,0,1,0,5.65H40l-.56.57v3.38l.56.57h5.69a7.34,7.34,0,0,0,4.2-13.43Z"/><path class="cls-7" d="M34.35,78.91H40V74.36H34.35a2.81,2.81,0,0,1-1.17-.26l-.8.25-2.29,2.28-.2.8a7.31,7.31,0,0,0,4.46,1.48Z"/><path class="cls-8" d="M34.35,64.14A7.4,7.4,0,0,0,29.89,77.4l3.3-3.3A2.84,2.84,0,1,1,37,70.34l3.3-3.3A7.45,7.45,0,0,0,34.35,64.14Z"/><path class="cls-9" d="M69.07,75.76a7.31,7.31,0,0,1-5.28-2.15,7.15,7.15,0,0,1,0-10.34,7.27,7.27,0,0,1,5.28-2.19,7.07,7.07,0,0,1,5.05,2L72.7,64.54a5.32,5.32,0,0,0-7.39,7.64,5.38,5.38,0,0,0,7.48.09,4.22,4.22,0,0,0,1.09-2.47H69.09v-2h6.78A5.75,5.75,0,0,1,76,69a6.3,6.3,0,0,1-1.75,4.68,6.77,6.77,0,0,1-5.13,2.07Zm15.76-1.35a4.91,4.91,0,0,1-6.76,0,4.78,4.78,0,0,1,0-6.74,4.93,4.93,0,0,1,6.76,0,4.79,4.79,0,0,1,0,6.74Zm-5.26-1.32a2.59,2.59,0,0,0,3.67.1.94.94,0,0,0,.1-.1,3,3,0,0,0,0-4.1,2.63,2.63,0,0,0-3.73-.06l-.06.06a2.85,2.85,0,0,0-.8,2.05,2.8,2.8,0,0,0,.81,2Zm15.66,1.32a4.91,4.91,0,0,1-6.76,0,4.82,4.82,0,0,1,0-6.74,4.92,4.92,0,0,1,6.77,0,4.8,4.8,0,0,1,0,6.74ZM90,73.09a2.61,2.61,0,0,0,3.68.1l.1-.1a3,3,0,0,0,0-4.1A2.63,2.63,0,0,0,90,68.93L90,69a2.77,2.77,0,0,0-.8,2.05,2.84,2.84,0,0,0,.8,2ZM102.06,80a4.21,4.21,0,0,1-2.65-.84,4.91,4.91,0,0,1-1.55-2l1.82-.76a3.08,3.08,0,0,0,.9,1.18,2.24,2.24,0,0,0,1.49.5,2.35,2.35,0,0,0,1.86-.71,2.93,2.93,0,0,0,.67-2.06v-.68h-.08a3,3,0,0,1-2.5,1.07,4.29,4.29,0,0,1-3.19-1.38,4.77,4.77,0,0,1,0-6.67,4.32,4.32,0,0,1,3.2-1.39,3.52,3.52,0,0,1,1.46.32,2.8,2.8,0,0,1,1,.76h.07v-.76h2v8.45a5,5,0,0,1-1.27,3.69A4.52,4.52,0,0,1,102.07,80Zm.15-6.1a2.29,2.29,0,0,0,1.8-.79,2.91,2.91,0,0,0,.73-2A3,3,0,0,0,104,69a2.32,2.32,0,0,0-1.8-.79,2.45,2.45,0,0,0-1.87.79,3,3,0,0,0,0,4.09,2.5,2.5,0,0,0,1.87.8Zm7.9-12.29V75.48H108V61.61Zm5.72,14.15a4.63,4.63,0,0,1-4.72-4.53V71a4.66,4.66,0,0,1,1.31-3.39,4.31,4.31,0,0,1,3.19-1.33,4.18,4.18,0,0,1,1.6.31,3.54,3.54,0,0,1,1.22.8,5.14,5.14,0,0,1,1.27,1.88l.22.54-6.39,2.61a2.4,2.4,0,0,0,2.3,1.43,2.74,2.74,0,0,0,2.34-1.31l1.6,1.07a5.33,5.33,0,0,1-1.54,1.45,4.33,4.33,0,0,1-2.4.66Zm-2.67-4.86,4.25-1.75a1.41,1.41,0,0,0-.66-.72,2.09,2.09,0,0,0-1.09-.28,2.43,2.43,0,0,0-1.72.75,2.51,2.51,0,0,0-.78,2Zm17.68,4.86a6.57,6.57,0,0,1-4.78-1.93,6.86,6.86,0,0,1,0-9.51,6.65,6.65,0,0,1,4.78-1.93,6,6,0,0,1,4.74,2.09l-1.15,1.11A4.39,4.39,0,0,0,130.84,64a4.91,4.91,0,0,0-5,4.78c0,.11,0,.22,0,.33a4.89,4.89,0,0,0,4.66,5.11h.34a5.06,5.06,0,0,0,4-1.86L136,73.47a6.38,6.38,0,0,1-2.21,1.67,6.93,6.93,0,0,1-2.94.62Zm8.24-.28h-1.65V62.67h1.65Zm2.7-7.71a4.76,4.76,0,1,1-1.28,3.66V71.1a4.66,4.66,0,0,1,1.28-3.33ZM143,73.4a2.8,2.8,0,0,0,4,.09l.09-.09a3.54,3.54,0,0,0,0-4.6,2.8,2.8,0,0,0-4-.09l-.09.09a3.15,3.15,0,0,0-.85,2.3,3.1,3.1,0,0,0,.86,2.29Zm15.72,2.08h-1.6V74.26h0a3.14,3.14,0,0,1-1.16,1.1,3.37,3.37,0,0,1-1.64.43,3.09,3.09,0,0,1-2.51-1,3.92,3.92,0,0,1-.85-2.68V66.72h1.65v5.09c0,1.63.73,2.45,2.18,2.45a2,2,0,0,0,1.68-.79,3,3,0,0,0,.64-1.9V66.72h1.66Zm5.61.29a3.92,3.92,0,0,1-3-1.34,5.08,5.08,0,0,1,0-6.65,3.88,3.88,0,0,1,3-1.34,3.74,3.74,0,0,1,1.8.43,3,3,0,0,1,1.2,1.07h.08l-.08-1.21V62.67H169V75.48h-1.6V74.26h-.08a3,3,0,0,1-1.2,1.07,3.69,3.69,0,0,1-1.78.43Zm.28-1.5a2.63,2.63,0,0,0,2-.86,3.74,3.74,0,0,0,0-4.62,2.71,2.71,0,0,0-3.83-.16l-.16.16a3.71,3.71,0,0,0,0,4.6,2.59,2.59,0,0,0,2,.87Z"/><path class="cls-10" d="M52.89,16H30a2.88,2.88,0,0,0-2.88,2.86V45.12A2.87,2.87,0,0,0,30,48H52.89a2.86,2.86,0,0,0,2.87-2.86V18.88A2.86,2.86,0,0,0,52.91,16Zm1.28,29.12a1.26,1.26,0,0,1-1.25,1.28H30a1.26,1.26,0,0,1-1.28-1.25V18.88A1.26,1.26,0,0,1,30,17.6H52.89a1.26,1.26,0,0,1,1.28,1.25V45.12ZM34.29,43.2,37.88,40l-3.59-3.2Zm12.93-13a5.23,5.23,0,0,0-3.83-1.44,19.19,19.19,0,0,0-6,1.12V20.8H34.29V34.64l2.23-1a19.69,19.69,0,0,1,6.87-1.68c1.6,0,2,.88,2,1.68v9.6h3.19V33.6A4.85,4.85,0,0,0,47.22,30.24ZM43,26h3.19a9.65,9.65,0,0,0,2.4-5.2H45.39A11.87,11.87,0,0,1,43,26Zm88.21,7.52V26.4h3.2v7c0,1.6.56,2.4,1.83,2.4s1.76-.72,1.76-2.4v-7h3.11v7.12c0,3.12-1.51,5-4.95,5S131.2,36.64,131.2,33.52Zm-13.41-7H121V30.8l3.27-4.32h3.67l-4,4.64,4.31,7.2h-3.59l-2.8-4.72-.87,1v3.68h-3.2Zm-15.17,5.84c0-4.32,3-6.16,5.83-6.16s5.83,1.84,5.83,6.16-3,6.16-5.83,6.16S102.62,36.72,102.62,32.32Zm8.39,0c0-2.16-1-3.52-2.64-3.52s-2.63,1.36-2.63,3.52,1,3.6,2.63,3.6,2.63-1.36,2.63-3.6ZM89.77,26.48H94.4c3,0,4.87,1,4.87,3.84A3.21,3.21,0,0,1,97,33.76l2.47,4.56H96.08l-2.32-4.08h-.87v4.08H89.77Zm4.55,5.28c1.28,0,1.92-.4,1.92-1.36S95.68,29,94.32,29H93v2.72ZM77.56,26.48H86v2.64H80.75V31H84.5v2.48H80.75v2.16h5.51v2.56h-8.7V26.48Zm-14.46,0h3.2v4.4h3.92v-4.4H73.4V38.32H70.21v-4.8H66.3v4.8H63.1Z"/></g></g></svg>