<svg xmlns="http://www.w3.org/2000/svg" xmlns:xlink="http://www.w3.org/1999/xlink" viewBox="0 0 196 128"><defs><style>.cls-1{fill:#f0f2f2;}.cls-2{fill:#262626;}.cls-3{fill:#539e43;}.cls-4{fill:#333;}.cls-5{fill:url(#linear-gradient);}.cls-6{fill:none;}.cls-7{fill:url(#linear-gradient-2);}.cls-10,.cls-11,.cls-12,.cls-8,.cls-9{fill-rule:evenodd;}.cls-8{fill:url(#linear-gradient-3);}.cls-9{fill:url(#linear-gradient-4);}.cls-10{fill:url(#linear-gradient-5);}.cls-11{fill:url(#linear-gradient-6);}.cls-12{fill:url(#linear-gradient-7);}.cls-13{fill:#646464;}.cls-14{fill:url(#linear-gradient-8);}.cls-15{fill:url(#linear-gradient-9);}.cls-16{opacity:0.44;isolation:isolate;fill:url(#radial-gradient);}.cls-17{fill:#4e7896;}.cls-18{fill:#f58219;}.cls-19{fill:#f0db4f;}.cls-20{fill:#323330;}</style><linearGradient id="linear-gradient" x1="-191.69" y1="440.3" x2="-192.09" y2="439.57" gradientTransform="matrix(14.15, 0, 0, -16.13, 2756.55, 7179.13)" gradientUnits="userSpaceOnUse"><stop offset="0" stop-color="#41873f"/><stop offset="0.33" stop-color="#418b3d"/><stop offset="0.64" stop-color="#419637"/><stop offset="0.93" stop-color="#3fa92d"/><stop offset="1" stop-color="#3fae2a"/></linearGradient><linearGradient id="linear-gradient-2" x1="-191.6" y1="439.91" x2="-190.44" y2="440.64" gradientTransform="matrix(13.83, 0, 0, -16.12, 2688.97, 7176.31)" gradientUnits="userSpaceOnUse"><stop offset="0.14" stop-color="#41873f"/><stop offset="0.4" stop-color="#54a044"/><stop offset="0.71" stop-color="#66b848"/><stop offset="0.91" stop-color="#6cc04a"/></linearGradient><linearGradient id="linear-gradient-3" x1="1473.88" y1="-6895.06" x2="1571.3" y2="-6895.06" gradientTransform="matrix(0.12, 0, 0, -0.04, -141.71, -235.09)" gradientUnits="userSpaceOnUse"><stop offset="0.09" stop-color="#6cc04a"/><stop offset="0.29" stop-color="#66b848"/><stop offset="0.6" stop-color="#54a044"/><stop offset="0.86" stop-color="#41873f"/></linearGradient><linearGradient id="linear-gradient-4" x1="-192.04" y1="439.99" x2="-190.99" y2="439.99" gradientTransform="matrix(13.8, 0, 0, -16.14, 2684.87, 7184.8)" xlink:href="#linear-gradient-3"/><linearGradient id="linear-gradient-5" x1="4296.05" y1="-2691.78" x2="4393.47" y2="-2691.78" gradientTransform="matrix(0.04, 0, 0, -0.11, -149.28, -194.01)" xlink:href="#linear-gradient-3"/><linearGradient id="linear-gradient-6" x1="-179.06" y1="386.23" x2="-177.01" y2="386.23" gradientTransform="matrix(7.14, 0, 0, -4.46, 1313.06, 1811.96)" xlink:href="#linear-gradient-3"/><linearGradient id="linear-gradient-7" x1="-176.72" y1="388.85" x2="-177.99" y2="384.72" gradientTransform="matrix(7.14, 0, 0, -4.46, 1313.06, 1811.96)" xlink:href="#linear-gradient"/><linearGradient id="linear-gradient-8" x1="-196.3" y1="444.13" x2="-194.98" y2="443" gradientTransform="matrix(19.71, 0, 0, -19.9, 3951.08, 8866.91)" gradientUnits="userSpaceOnUse"><stop offset="0" stop-color="#5a9fd4"/><stop offset="1" stop-color="#306998"/></linearGradient><linearGradient id="linear-gradient-9" x1="-195.05" y1="442.65" x2="-195.53" y2="443.31" gradientTransform="matrix(19.75, 0, 0, -20.05, 3966.43, 8943.58)" gradientUnits="userSpaceOnUse"><stop offset="0" stop-color="#ffd43b"/><stop offset="1" stop-color="#ffe873"/></linearGradient><radialGradient id="radial-gradient" cx="-305.72" cy="446.37" r="0.5" gradientTransform="matrix(0, -3.34, -14.65, 0, 6633.22, -965.44)" gradientUnits="userSpaceOnUse"><stop offset="0" stop-color="#b8b8b8" stop-opacity="0.5"/><stop offset="1" stop-color="#7f7f7f" stop-opacity="0"/></radialGradient></defs><g id="Layer_2" data-name="Layer 2"><g id="Layer_1-2" data-name="Layer 1"><path class="cls-1" d="M181.3,127.5H14.7a14.08,14.08,0,0,1-10-4.18A14.23,14.23,0,0,1,.5,113.23V14.77A14.25,14.25,0,0,1,4.66,4.68,14.08,14.08,0,0,1,14.7.5H181.3a14.08,14.08,0,0,1,10,4.18,14.23,14.23,0,0,1,4.16,10.09v98.46a14.23,14.23,0,0,1-4.16,10.09A14.08,14.08,0,0,1,181.3,127.5Z"/><path class="cls-2" d="M14.7,1A13.57,13.57,0,0,0,5,5a13.72,13.72,0,0,0-4,9.74v98.46A13.75,13.75,0,0,0,5,123a13.57,13.57,0,0,0,9.69,4H181.3a13.58,13.58,0,0,0,9.69-4,13.72,13.72,0,0,0,4-9.74V14.77A13.75,13.75,0,0,0,191,5a13.57,13.57,0,0,0-9.69-4H14.7m0-1H181.3A14.73,14.73,0,0,1,196,14.77v98.46A14.73,14.73,0,0,1,181.3,128H14.7A14.73,14.73,0,0,1,0,113.23V14.77A14.73,14.73,0,0,1,14.7,0Z"/><path class="cls-3" d="M49.63,107.34a1.38,1.38,0,0,1-.63-.17L47,106c-.3-.17-.15-.23-.06-.26a3.64,3.64,0,0,0,.9-.4.14.14,0,0,1,.15,0l1.53.92a.19.19,0,0,0,.18,0l6-3.47a.17.17,0,0,0,.09-.17V95.71a.18.18,0,0,0-.09-.17l-6-3.45a.19.19,0,0,0-.18,0l-6,3.45a.22.22,0,0,0-.09.17v6.92a.19.19,0,0,0,.09.16l1.64.95c.89.45,1.44-.08,1.44-.6V96.31a.18.18,0,0,1,.18-.18h.77a.18.18,0,0,1,.18.18v6.83A1.66,1.66,0,0,1,46.3,105a1.22,1.22,0,0,1-.33,0,2.61,2.61,0,0,1-1.39-.37l-1.57-.9a1.28,1.28,0,0,1-.63-1.1V95.72a1.28,1.28,0,0,1,.63-1.1l6-3.47a1.34,1.34,0,0,1,1.26,0l6,3.47a1.28,1.28,0,0,1,.63,1.1v6.92a1.28,1.28,0,0,1-.63,1.1l-6,3.47a1.51,1.51,0,0,1-.63.13Zm1.85-4.76c-2.63,0-3.17-1.2-3.17-2.22a.18.18,0,0,1,.18-.18h.78a.15.15,0,0,1,.17.14h0c.12.8.46,1.18,2.05,1.18,1.26,0,1.8-.28,1.8-1,0-.39-.15-.67-2.11-.87-1.64-.16-2.66-.52-2.66-1.83s1-1.94,2.73-1.94c1.92,0,2.87.66,3,2.1a.24.24,0,0,1-.05.14.17.17,0,0,1-.12.06h-.78a.17.17,0,0,1-.16-.14c-.18-.82-.65-1.1-1.88-1.1-1.38,0-1.54.48-1.54.84s.2.57,2,.81,2.72.59,2.72,1.88S53.38,102.58,51.48,102.58Z"/><path class="cls-4" d="M30.75,80.94a.77.77,0,0,0-.4-.66l-6.47-3.67a.88.88,0,0,0-.35-.1h-.06a.68.68,0,0,0-.35.1l-6.47,3.66a.75.75,0,0,0-.4.66v9.85a.38.38,0,0,0,.2.33.37.37,0,0,0,.38,0L20.69,89a.77.77,0,0,0,.4-.66V83.68a.75.75,0,0,1,.4-.66l1.63-.93a.8.8,0,0,1,.4-.11.73.73,0,0,1,.38.11l1.63.93a.74.74,0,0,1,.4.66v4.61a.79.79,0,0,0,.4.66l3.85,2.16a.36.36,0,0,0,.4,0,.38.38,0,0,0,.2-.33ZM61.84,67.38a.42.42,0,0,0-.38,0,.38.38,0,0,0-.2.33v9.76a.28.28,0,0,1-.41.24l-1.62-.92a.83.83,0,0,0-.78,0L52,80.47a.77.77,0,0,0-.4.66v7.34a.79.79,0,0,0,.4.66l6.47,3.67a.78.78,0,0,0,.78,0l6.47-3.67a.79.79,0,0,0,.4-.66V70.17a.77.77,0,0,0-.4-.67Zm-.6,18.67a.18.18,0,0,1-.09.17l-2.21,1.26a.23.23,0,0,1-.2,0l-2.21-1.26a.2.2,0,0,1-.09-.17V83.53a.18.18,0,0,1,.09-.17l2.21-1.26a.23.23,0,0,1,.2,0l2.21,1.26a.21.21,0,0,1,.1.17v2.52Zm22.13-2.58a.75.75,0,0,0,.38-.66V81a.78.78,0,0,0-.38-.66L77,76.7a.83.83,0,0,0-.78,0L69.7,80.38a.74.74,0,0,0-.4.66v7.34a.75.75,0,0,0,.4.66l6.42,3.6a.79.79,0,0,0,.76,0l3.89-2.14a.37.37,0,0,0,.16-.5.41.41,0,0,0-.16-.16l-6.5-3.67a.41.41,0,0,1-.2-.33v-2.3a.37.37,0,0,1,.2-.33l2-1.14a.36.36,0,0,1,.4,0l2,1.14a.37.37,0,0,1,.2.33v1.8a.38.38,0,0,0,.2.33.41.41,0,0,0,.4,0l3.85-2.21Z"/><path class="cls-3" d="M76.58,82.85a.14.14,0,0,1,.15,0l1.21.7a.16.16,0,0,1,.08.14V85.1a.14.14,0,0,1-.08.13l-1.21.71a.14.14,0,0,1-.15,0l-1.22-.71a.14.14,0,0,1-.08-.13V83.69a.16.16,0,0,1,.08-.14Z"/><path class="cls-5" d="M41.52,76.5a.81.81,0,0,0-.77,0l-6.32,3.65a.76.76,0,0,0-.37.66v7.31a.77.77,0,0,0,.37.66l6.32,3.65a.81.81,0,0,0,.77,0l6.32-3.65a.77.77,0,0,0,.37-.66V80.81a.77.77,0,0,0-.37-.66Z"/><path class="cls-6" d="M40.74,76.5,34.4,80.15a.77.77,0,0,0-.4.66v7.31a.72.72,0,0,0,.2.48l7.11-12.19a.86.86,0,0,0-.57.09Zm.61,16a.75.75,0,0,0,.18-.07l6.34-3.65a.78.78,0,0,0,.39-.66V80.81a.8.8,0,0,0-.23-.53L41.35,92.5Z"/><path class="cls-7" d="M47.85,80.15,41.5,76.5l-.2-.07L34.19,88.61a.6.6,0,0,0,.21.18l6.35,3.65a.76.76,0,0,0,.59.08L48,80.3A.8.8,0,0,0,47.85,80.15Z"/><path class="cls-6" d="M48.26,88.12V80.81a.78.78,0,0,0-.41-.66L41.5,76.5a1,1,0,0,0-.24-.09l7,11.87a.29.29,0,0,0,0-.16Zm-13.86-8a.77.77,0,0,0-.4.66v7.31a.82.82,0,0,0,.4.66l6.35,3.65a.67.67,0,0,0,.5.08l-6.8-12.38Z"/><path class="cls-8" d="M40.54,75.17l-.08,0h.11Z"/><path class="cls-9" d="M47.87,88.78a.84.84,0,0,0,.37-.48l-7-11.89a.78.78,0,0,0-.54.09l-6.3,3.63,6.8,12.4a.71.71,0,0,0,.28-.09l6.35-3.66Z"/><path class="cls-10" d="M48.45,88.66l0-.08v.11Z"/><path class="cls-11" d="M47.87,88.78l-6.34,3.65a1.31,1.31,0,0,1-.28.09l.12.22,7-4.07v-.09l-.18-.3A.71.71,0,0,1,47.87,88.78Z"/><path class="cls-12" d="M47.87,88.78l-6.34,3.65a1.31,1.31,0,0,1-.28.09l.12.22,7-4.07v-.09l-.18-.3A.71.71,0,0,1,47.87,88.78Z"/><path class="cls-13" d="M121.14,37.17q0-5.24-3-5.38a5.51,5.51,0,0,0-2.31.38,3.48,3.48,0,0,0-1.22.64v8.33A6,6,0,0,0,118,42.25C120.09,42.11,121.14,40.42,121.14,37.17Zm2.45.14a7.41,7.41,0,0,1-1.25,4.41,4.6,4.6,0,0,1-3.87,2,6.86,6.86,0,0,1-3.85-1.16v7.56l-2.13-.76V32.61a4.66,4.66,0,0,1,1.35-1.11,9.2,9.2,0,0,1,4.62-1.14l0,0a4.25,4.25,0,0,1,3.84,2,8.74,8.74,0,0,1,1.26,4.88Zm12.95,5a11.83,11.83,0,0,1-.72,4.93,5,5,0,0,1-2.73,2.19,10.41,10.41,0,0,1-3.53.7l-.36-1.34a16.76,16.76,0,0,0,2.72-.53,3.55,3.55,0,0,0,2.13-1.6,7.87,7.87,0,0,0,.47-3.36v-.56a10.83,10.83,0,0,1-4.59,1,4.2,4.2,0,0,1-2.77-1A3.36,3.36,0,0,1,125.82,40V31.09l2.13-.73V39.3a2.72,2.72,0,0,0,.92,2.2,3.51,3.51,0,0,0,2.39.75,6,6,0,0,0,3.14-1.14V30.68h2.14Zm8.26,1.37-.7,0a4.2,4.2,0,0,1-2.82-.87,2.94,2.94,0,0,1-1-2.38V32h-1.46V30.68h1.46V27.12l2.13-.76v4.32h2.4V32h-2.4v8.35a2,2,0,0,0,.64,1.7,3.3,3.3,0,0,0,1.76.47Zm12.84-.18h-2.13V35.24a3.89,3.89,0,0,0-.59-2.16,2.14,2.14,0,0,0-1.88-1,7,7,0,0,0-3.67,1.55v9.87h-2.13V23.79l2.13-.67v9a7.44,7.44,0,0,1,4.47-1.49,3.58,3.58,0,0,1,2.75,1.14,4.06,4.06,0,0,1,1,2.84v8.9Zm11.25-6.64a6.62,6.62,0,0,0-.76-3.32,3.2,3.2,0,0,0-2.8-1.69c-2.34.13-3.51,1.81-3.51,5a8.34,8.34,0,0,0,.73,3.69,3,3,0,0,0,2.82,1.86C167.71,42.37,168.89,40.52,168.89,36.83Zm2.33,0a7.56,7.56,0,0,1-1.46,4.77,5.26,5.26,0,0,1-4.44,2.13,5.15,5.15,0,0,1-4.38-2.13,7.74,7.74,0,0,1-1.43-4.77,6.78,6.78,0,0,1,1.55-4.52,5.31,5.31,0,0,1,4.29-2,5.4,5.4,0,0,1,4.33,2,6.82,6.82,0,0,1,1.54,4.52Zm12.09,6.63h-2.13v-8.7a2.9,2.9,0,0,0-.86-2.23,3.12,3.12,0,0,0-2.29-.78,5.13,5.13,0,0,0-2.9,1V43.47H173v-11a10.52,10.52,0,0,1,3.39-1.75,10.65,10.65,0,0,1,2.57-.38,6.88,6.88,0,0,1,1.43.15,4.09,4.09,0,0,1,2.05,1.08,2.87,2.87,0,0,1,.88,2.1Z"/><path class="cls-14" d="M91.65,23.87a18.62,18.62,0,0,0-3.07.26c-2.71.48-3.21,1.49-3.21,3.34v2.45h6.42v.81H83A4,4,0,0,0,79,34a12,12,0,0,0,0,6.52c.46,1.9,1.55,3.26,3.41,3.26h2.21V40.83a4.09,4.09,0,0,1,4-4H95a3.24,3.24,0,0,0,3.21-3.25h0V27.47A3.59,3.59,0,0,0,95,24.13,19.82,19.82,0,0,0,91.65,23.87Zm-3.47,2a1.22,1.22,0,1,1,0,2.44A1.21,1.21,0,0,1,87,27.08v0A1.21,1.21,0,0,1,88.18,25.84Z"/><path class="cls-15" d="M99,30.73v2.85a4.12,4.12,0,0,1-4,4.07H88.58a3.29,3.29,0,0,0-3.21,3.27V47c0,1.74,1.51,2.76,3.21,3.26a10.78,10.78,0,0,0,6.41,0c1.62-.47,3.21-1.41,3.21-3.26V44.58H91.79v-.81h9.63c1.86,0,2.56-1.3,3.21-3.26a11.14,11.14,0,0,0,0-6.52c-.46-1.86-1.35-3.26-3.21-3.26ZM95.4,46.21a1.23,1.23,0,1,1,0,2.45,1.22,1.22,0,0,1-1.25-1.2v0A1.22,1.22,0,0,1,95.4,46.21Z"/><path class="cls-13" d="M187.47,28.78h.37V26.43h.89v-.28h-2.15v.28h.89v2.35m1.59,0h.32V26.64l.69,2.14h.36l.72-2.14v2.14h.35V26.15H191l-.79,2.25-.67-2.25h-.52v2.63"/><path class="cls-16" d="M100.47,54.45c0,.92-3.85,1.67-8.6,1.67s-8.6-.75-8.6-1.67,3.85-1.67,8.6-1.67S100.47,53.53,100.47,54.45Z"/><path class="cls-17" d="M112.44,92.55s-1.32.8.91,1a18.9,18.9,0,0,0,7.11-.28,11,11,0,0,0,1.89.91c-6.7,2.87-15.18-.17-9.91-1.66Zm-.86-3.73s-1.44,1.09.8,1.32a26.93,26.93,0,0,0,9.17-.46,3.39,3.39,0,0,0,1.37.86c-8.08,2.41-17.13.23-11.35-1.72Zm15.81,6.54s1,.8-1.09,1.43c-3.83,1.14-16.1,1.49-19.54,0-1.2-.52,1.09-1.27,1.84-1.38a6.28,6.28,0,0,1,1.14-.17c-1.31-.92-8.76,1.89-3.78,2.69,13.7,2.23,25-1,21.43-2.58ZM113.06,84.93s-6.24,1.49-2.23,2a49.42,49.42,0,0,0,8.25-.06c1.73-.16,3.45-.39,5.16-.68a12.61,12.61,0,0,0-1.55.8c-6.36,1.66-18.57.91-15.07-.8a12,12,0,0,1,5.44-1.27Zm11.18,6.24c6.41-3.32,3.44-6.53,1.37-6.13a4,4,0,0,0-.74.23,1,1,0,0,1,.57-.46c4.07-1.43,7.28,4.3-1.32,6.54a.71.71,0,0,0,.12-.18Zm-10.54,9.06c6.19.4,15.64-.23,15.87-3.15,0,0-.46,1.14-5.1,2a51.65,51.65,0,0,1-15.65.23s.8.69,4.88.92Z"/><path class="cls-18" d="M120.34,66.34s3.56,3.61-3.38,9c-5.55,4.41-1.26,6.93,0,9.8-3.26-2.92-5.61-5.5-4-7.91,2.35-3.55,8.83-5.27,7.39-10.94Zm-1.83,16.44c1.66,1.89-.46,3.61-.46,3.61s4.24-2.18,2.29-4.87c-1.77-2.58-3.15-3.84,4.3-8.14,0,0-11.74,2.93-6.13,9.4Z"/><path class="cls-17" d="M156.51,89.33V80.75c0-2.19-1.25-3.68-4.36-3.68a12.41,12.41,0,0,0-4.62,1l.44,1.57a10.83,10.83,0,0,1,3.56-.7c1.69,0,2.49.7,2.49,2.1v1.14h-.88c-4.27,0-6.23,1.58-6.23,4.11,0,2.1,1.34,3.33,3.74,3.33A5.72,5.72,0,0,0,154.38,88l.18,1.31ZM154,86.53a4.33,4.33,0,0,1-2.76,1.23,1.74,1.74,0,0,1-1.87-1.6,1.82,1.82,0,0,1,0-.33c0-1.22.71-2.1,3.56-2.1H154Zm10.84,2.8h-3.11l-3.73-12h2.66L163,84.7l.53,2.18a41.71,41.71,0,0,0,2.4-9.54h2.66a49.14,49.14,0,0,1-3.73,12Zm14.4,0V80.75c0-2.19-1.24-3.68-4.36-3.68a12.49,12.49,0,0,0-4.62,1l.36,1.57a11.93,11.93,0,0,1,3.64-.7c1.69,0,2.49.7,2.49,2.1v1.14h-.89c-4.26,0-6.22,1.58-6.22,4.11,0,2.1,1.25,3.33,3.65,3.33A5.85,5.85,0,0,0,177.13,88l.18,1.31Zm-2.49-2.8A4.33,4.33,0,0,1,174,87.76a1.75,1.75,0,0,1-1.88-1.59,1.28,1.28,0,0,1,0-.34c0-1.22.71-2.1,3.55-2.1h1.07v2.8Zm-32.62,4.82A5.92,5.92,0,0,1,141,93.63l-1.16-1.4a5.89,5.89,0,0,0,2.13-2c.36-.61.45-1.48.45-3.5V73.05h2.67V86.53c0,2.72-.27,3.77-1,4.82Z"/><path class="cls-19" d="M16.54,10.89H61.67V56H16.54Z"/><path class="cls-20" d="M57.6,44.16c-.36-2.27-1.84-4.17-6.22-5.95-1.52-.7-3.21-1.2-3.72-2.35a2.56,2.56,0,0,1-.09-1.45c.33-1.32,1.9-1.73,3.15-1.35a3.45,3.45,0,0,1,2,1.87c2.14-1.39,2.14-1.38,3.64-2.33A9.49,9.49,0,0,0,55.18,31c-1.29-1.44-3-2.18-5.86-2.13l-1.47.19a6.74,6.74,0,0,0-3.52,2.08,6.52,6.52,0,0,0,1,9.15l.16.12c2.82,2.11,7,2.6,7.49,4.58.52,2.42-1.78,3.2-4.06,2.92a5.32,5.32,0,0,1-3.63-2.75l-3.77,2.17a8.34,8.34,0,0,0,1.69,2.3c3.6,3.66,12.61,3.48,14.22-2A6.8,6.8,0,0,0,57.6,44.16ZM39,29.16H34.34c0,4,0,8,0,12,0,2.56.13,4.9-.28,5.62-.68,1.41-2.44,1.24-3.25,1A4,4,0,0,1,29.08,46a1.88,1.88,0,0,0-.27-.42L25,47.87A7.51,7.51,0,0,0,27.77,51a9.06,9.06,0,0,0,6.65.82,5.91,5.91,0,0,0,3.75-2.94c1.06-2,.83-4.32.82-6.93,0-4.26,0-8.53,0-12.8Z"/></g></g></svg>