<svg xmlns="http://www.w3.org/2000/svg" viewBox="0 0 196 128"><defs><style>.cls-1{fill:#f0f2f2;}.cls-2{fill:#262626;}.cls-3{fill:#cf649a;}.cls-4{fill:#092e20;}.cls-5{fill:#fff;}.cls-6{fill:#e44d26;}.cls-7{fill:#f16529;}.cls-8{fill:#ebebeb;}.cls-9{fill:#1a1c1c;}.cls-10{fill:#8ed6fb;}.cls-11{fill:#1c78c0;}</style></defs><g id="Layer_2" data-name="Layer 2"><g id="Layer_1-2" data-name="Layer 1"><path class="cls-1" d="M181.3,127.5H14.7a14.08,14.08,0,0,1-10-4.18A14.23,14.23,0,0,1,.5,113.23V14.77A14.25,14.25,0,0,1,4.66,4.68,14.08,14.08,0,0,1,14.7.5H181.3a14.08,14.08,0,0,1,10,4.18,14.23,14.23,0,0,1,4.16,10.09v98.46a14.23,14.23,0,0,1-4.16,10.09A14.08,14.08,0,0,1,181.3,127.5Z"/><path class="cls-2" d="M14.7,1A13.57,13.57,0,0,0,5,5a13.72,13.72,0,0,0-4,9.74v98.46A13.75,13.75,0,0,0,5,123a13.57,13.57,0,0,0,9.69,4H181.3a13.58,13.58,0,0,0,9.69-4,13.72,13.72,0,0,0,4-9.74V14.77A13.75,13.75,0,0,0,191,5a13.57,13.57,0,0,0-9.69-4H14.7m0-1H181.3A14.73,14.73,0,0,1,196,14.77v98.46A14.73,14.73,0,0,1,181.3,128H14.7A14.73,14.73,0,0,1,0,113.23V14.77A14.73,14.73,0,0,1,14.7,0Z"/><path class="cls-3" d="M79.65,97.42a15.32,15.32,0,0,0-6.42,1.38,11.64,11.64,0,0,1-1.44-3.07,7.72,7.72,0,0,1-.12-2.58,19.47,19.47,0,0,1,.84-2.79c0-.12-.15-.68-1.58-.69s-2.66.25-2.8.6a13.69,13.69,0,0,0-.6,2c-.25,1.2-2.85,5.46-4.33,7.7a7.4,7.4,0,0,1-1-2.25,7.72,7.72,0,0,1-.13-2.58,19.5,19.5,0,0,1,.85-2.79c0-.11-.16-.68-1.58-.69s-2.66.26-2.8.6-.29,1.16-.6,2-3.75,7.9-4.65,9.75c-.46,1-.86,1.7-1.15,2.21s0,0,0,.09l-.39.68h0c-.2.32-.4.62-.5.62a3.88,3.88,0,0,1,0-2C51.77,103,53,99.19,53,99.05s.23-.75-.8-1.09a1.33,1.33,0,0,0-1.45.23c-.09,0-.16.2-.16.2s1.12-4.33-2.14-4.33c-2.05,0-4.88,2-6.27,3.93l-4.77,2.4c-.76.39-1.55.8-2.3,1.17L35,101.4c-4-3.9-11.28-6.66-11-11.9.13-1.89.85-6.91,14.09-13,10.84-5,19.52-3.62,21-.58,2.15,4.35-4.63,12.43-15.9,13.59-4.29.45-6.55-1.09-7.12-1.66s-.68-.63-.9-.51-.14.71,0,1a6.54,6.54,0,0,0,4.07,3c2.07.63,7.1,1,13.2-1.2C59.26,87.69,64.59,80.91,63,75.25s-12-7.66-21.74-4.45c-5.83,1.92-12.14,4.91-16.68,8.83-5.4,4.66-6.26,8.72-5.9,10.4,1.26,6,10.25,10,13.85,12.85l-.5.26c-1.8.82-8.66,4.13-10.37,7.63-1.94,4,.3,6.81,1.8,7.2a11.49,11.49,0,0,0,11.92-4.46c2.54-3.52,2.24-8.08,1.06-10.17l0-.07,1.41-.77c.92-.5,1.82-1,2.6-1.35a15,15,0,0,0-.93,4.34c-.19,2.25.8,5.17,2.12,6.32a2.54,2.54,0,0,0,1.7.51c1.53,0,2.22-1.17,3-2.56.94-1.7,1.77-3.67,1.77-3.67s-1,5.33,1.8,5.33c1,0,2.08-1.24,2.55-1.88v0l.08-.13.17-.25v0c.41-.67,1.34-2.19,2.72-4.7,1.79-3.25,3.5-7.31,3.5-7.31a23.6,23.6,0,0,0,.68,2.63,24.77,24.77,0,0,0,1.48,3.07c-.41.54-.66.84-.66.84v0c-.33.4-.7.84-1.09,1.27A39.17,39.17,0,0,0,56,108.83a1,1,0,0,0,.27,1.39l0,0a2.9,2.9,0,0,0,1.74.25,8,8,0,0,0,2.6-.55,9.26,9.26,0,0,0,2.24-1.08A4.5,4.5,0,0,0,65,104.78a7.68,7.68,0,0,0-.82-2.88c.13-.16.25-.33.38-.51a52.72,52.72,0,0,0,3.87-6.2,22.24,22.24,0,0,0,.68,2.64,18.14,18.14,0,0,0,1.26,2.63A11.56,11.56,0,0,0,66.62,105c-.82,2.17-.18,3.16,1,3.39a3.91,3.91,0,0,0,1.9-.36,9,9,0,0,0,2.4-1.14c1.38-.94,2.71-2.26,2.64-4a7.37,7.37,0,0,0-.6-2.39,14.59,14.59,0,0,1,6.87-.73c6.16.67,7.38,4.22,7.14,5.7a3.87,3.87,0,0,1-2,2.56c-.43.24-.57.33-.53.51s.25.26.62.2a4.54,4.54,0,0,0,3.35-4c.17-3.51-3.44-7.35-9.85-7.31ZM32.14,112.21c-2,2.05-4.9,2.83-6.12,2.17s-.8-3.73,1.7-5.92a33,33,0,0,1,4.8-3.31l1.26-.7.14-.08.32-.18a7.75,7.75,0,0,1-2.1,8ZM47,102.86c-.71,1.6-2.2,5.7-3.1,5.47s-1.24-3.3-.15-6.36a14.13,14.13,0,0,1,2.42-4.1c1.12-1.15,2.34-1.54,2.65-1.06s-1.38,5-1.82,6Zm12.28,5.42c-.3.14-.58.25-.71.17s.13-.24.13-.24,1.53-1.53,2.14-2.23c.35-.41.76-.88,1.2-1.42v.16c0,1.84-1.91,3.06-2.77,3.56Zm9.47-2c-.22-.15-.2-.63.55-2.11a8.19,8.19,0,0,1,2.1-2.51,3,3,0,0,1,.21,1.1,3.66,3.66,0,0,1-2.86,3.51Z"/><path class="cls-4" d="M176.87,104.58a3.81,3.81,0,0,1-3.81,3.81H112a3.8,3.8,0,0,1-3.81-3.81h0V82.78A3.81,3.81,0,0,1,112,79h61a3.82,3.82,0,0,1,3.82,3.81Z"/><path class="cls-5" d="M120.15,83.35h3.28V98.54a21.77,21.77,0,0,1-4.26.45c-4,0-6.1-1.81-6.1-5.29s2.22-5.52,5.65-5.52a5.33,5.33,0,0,1,1.43.17v-5Zm0,7.65a3.22,3.22,0,0,0-1.11-.17c-1.66,0-2.62,1-2.62,2.81a2.38,2.38,0,0,0,2,2.69,2.09,2.09,0,0,0,.56,0,7.16,7.16,0,0,0,1.13-.08Z"/><path class="cls-5" d="M128.54,88.42V96c0,2.63-.19,3.89-.76,5a5.19,5.19,0,0,1-2.69,2.43l-3-1.45a4.77,4.77,0,0,0,2.6-2.2c.47-.93.61-2,.61-4.88V88.42Zm-3.28-5h3.28v3.37h-3.28Zm5.17,5.79a9.88,9.88,0,0,1,4.34-1c1.69,0,2.8.45,3.29,1.33a5.09,5.09,0,0,1,.36,2.5v6.67a35.15,35.15,0,0,1-4.69.37c-2.75,0-4-1-4-3.1,0-2.3,1.65-3.37,5.67-3.71v-.73c0-.6-.3-.81-1.13-.81a8.64,8.64,0,0,0-3.85,1V89.16Zm5.13,5.23c-2.17.22-2.87.56-2.87,1.41,0,.64.4.94,1.3.94a8.35,8.35,0,0,0,1.57-.15Zm4.33-5.46a19.49,19.49,0,0,1,5.15-.75,5,5,0,0,1,3.63,1.13c.68.7.89,1.48.89,3.12v6.44h-3.28V92.56c0-1.26-.43-1.73-1.6-1.73a5.17,5.17,0,0,0-1.51.23v7.81h-3.29V88.93Zm10.79,11.73a7.47,7.47,0,0,0,3.52.88c2.15,0,3.07-.88,3.07-3v-.06a4.49,4.49,0,0,1-2.13.45c-2.88,0-4.71-1.9-4.71-4.9,0-3.73,2.7-5.84,7.5-5.84a20.55,20.55,0,0,1,4.28.47l-1.12,2.37c-.88-.18-.07,0-.73-.09v.34l0,1.38,0,1.8c0,.44,0,.89,0,1.34v.9c0,2.81-.23,4.13-.93,5.22-1,1.6-2.79,2.38-5.31,2.38a9.51,9.51,0,0,1-3.54-.63v-3Zm6.52-9.8h-.33a3.58,3.58,0,0,0-1.9.47,2.55,2.55,0,0,0-1.2,2.41c0,1.64.81,2.58,2.26,2.58a4.36,4.36,0,0,0,1.24-.21V95c0-.38,0-.81,0-1.25l0-1.52,0-1.08v-.26Zm10-2.72c3.28,0,5.29,2.07,5.29,5.42s-2.09,5.59-5.42,5.59-5.3-2.07-5.3-5.4S163.82,88.14,167.17,88.14Zm-.06,8.36c1.26,0,2-1,2-2.85s-.73-2.86-2-2.86-2,1-2,2.86.75,2.85,2,2.85Z"/><path class="cls-6" d="M145.1,55l-3.17-35.37h34.75L173.52,55l-14.23,3.94Z"/><path class="cls-7" d="M159.1,55.89l11.64-3.23L173.47,22H159.1Z"/><path class="cls-8" d="M159.4,35.48h-5.82l-.4-4.51h6.23v-4.4h-11l.11,1.18,1.08,12.14h9.86Zm0,11.44h0l-4.9-1.32-.32-3.51h-4.42l.62,6.91,9,2.5h0Z"/><path d="M145.21,9.89h2.19V12.1h2V9.89h2.2v6.69h-2.2V14.34h-2v2.24h-2.2Zm9.32,2.22h-1.94V9.89h6.09v2.22h-1.94v4.47h-2.21Zm5.11-2.22h2.3l1.42,2.35,1.41-2.35h2.3v6.69h-2.2V13.26l-1.52,2.38h0l-1.52-2.38v3.32h-2.16V9.89Zm8.53,0h2.2v4.48h3.1v2.21h-5.3Z"/><path class="cls-5" d="M159.2,35.48v4.4h5.42l-.51,5.71-4.91,1.33V51.5l9-2.5.07-.74,1-11.6.11-1.18Zm0-8.91V31h10.63l.09-1,.2-2.23.1-1.18Z"/><path class="cls-9" d="M62.22,40.16H65l2.83-9.44h-2.7l-1.68,6.7-1.8-6.7H59.31l-1.81,6.7-1.66-6.7h-2.7L56,40.17h2.78l1.75-6.05ZM68,35.47a4.71,4.71,0,0,0,4.48,4.93h.49a4.48,4.48,0,0,0,4-2.08l-1.65-1.25A2.74,2.74,0,0,1,73,38.23a2.29,2.29,0,0,1-2.45-2.12v0h6.66a4.87,4.87,0,0,0,0-.54c0-3.09-1.66-5-4.59-5A4.66,4.66,0,0,0,68,35.18a2.81,2.81,0,0,0,0,.29Zm2.62-1a2,2,0,0,1,2-1.92,1.93,1.93,0,0,1,2,1.83v.09Zm7.53,5.72h2.35v-1a3.69,3.69,0,0,0,2.8,1.2,4.6,4.6,0,0,0,4.64-4.56c0-.13,0-.26,0-.39,0-2.92-1.77-5-4.48-5a3.53,3.53,0,0,0-2.8,1.22V27.1H78.13V40.16Zm2.42-4.69c0-1.77,1-2.78,2.42-2.78a2.49,2.49,0,0,1,2.44,2.54,1.94,1.94,0,0,1,0,.24,2.44,2.44,0,0,1-2.14,2.71l-.27,0a2.48,2.48,0,0,1-2.43-2.53,1.34,1.34,0,0,1,0-.2Zm8.33,8.07h2.49V39.19a3.64,3.64,0,0,0,2.8,1.2c2.7,0,4.48-2,4.48-5a4.6,4.6,0,0,0-4.25-4.93,2.32,2.32,0,0,0-.37,0,3.59,3.59,0,0,0-2.8,1.22v-1H88.87V43.53Zm2.42-8.12a2.48,2.48,0,0,1,2.22-2.72h.2a2.45,2.45,0,0,1,2.44,2.45c0,.09,0,.18,0,.28A2.49,2.49,0,0,1,94,38.18h-.24C92.34,38.19,91.29,37.19,91.29,35.42Zm7.8,1.82a3.24,3.24,0,0,0,3.3,3.17h.24a3,3,0,0,0,2.3-.85l.16.61h2.2v-6c0-2.11-.9-3.7-3.94-3.7a7.11,7.11,0,0,0-3.72,1.12l.94,1.7a5.5,5.5,0,0,1,2.51-.67c1.1,0,1.71.56,1.71,1.39v.62a3.81,3.81,0,0,0-2-.52c-2.2,0-3.66,1.26-3.66,3.12Zm2.49-.08c0-.77.67-1.31,1.63-1.31s1.64.49,1.64,1.31-.69,1.3-1.62,1.3-1.64-.52-1.64-1.3Zm11.76,1a2.61,2.61,0,0,1-2.7-2.54v-.2a2.59,2.59,0,0,1,2.4-2.76h.2a3.14,3.14,0,0,1,2.2.9l.7-2.1a4.79,4.79,0,0,0-3-1,4.86,4.86,0,0,0-5,4.71v.27a5,5,0,0,0,8,3.92l-.67-2a3.41,3.41,0,0,1-2.13.85Zm3.74,2h2.49V35.28l3.16,4.88h2.92L122.08,35l3.32-4.28h-2.8l-3,4V27.11h-2.49Z"/><path class="cls-10" d="M46.81,44.16,33.58,51.65V45.82l8.25-4.53Zm.91-.82V27.69l-4.84,2.8V40.55Zm-28.53.82,13.23,7.49V45.82l-8.25-4.54Zm-.91-.82V27.69l4.84,2.8V40.55Zm.57-16.66L32.42,19v5.63l-8.77,4.82Zm28.3,0L33.58,19v5.63l8.76,4.82Z"/><path class="cls-11" d="M32.42,44.75l-8.13-4.48V31.41l8.13,4.7Zm1.16,0,8.14-4.47V31.41l-8.14,4.7ZM24.84,30.39,33,25.9l8.17,4.49L33,35.1Z"/></g></g></svg>