<svg xmlns="http://www.w3.org/2000/svg" viewBox="0 0 213.65 185.03"><defs><style>.cls-1,.cls-3{fill:#f0f2f2;}.cls-2,.cls-5{fill:#262626;}.cls-3,.cls-5{stroke:#f0f2f2;}.cls-4{fill:#9d50e6;}.cls-5{stroke-width:2px;}.cls-6{fill:#2f6580;}</style></defs><g id="Layer_2" data-name="Layer 2"><g id="small_logo" data-name="small logo"><g id="outer"><g id="Layer_1-2" data-name="Layer 1"><path id="Path_234" data-name="Path 234" class="cls-1" d="M54,184.1,1.07,92.51,54,.93H159.69l52.88,91.58L159.69,184.1Z"/><path id="Path_235" data-name="Path 235" class="cls-1" d="M159.12,1.85l52.35,90.66-52.35,90.67H54.47L2.13,92.51,54.47,1.85H159.12M160.18,0H53.42L0,92.51,53.42,185H160.23l53.42-92.52L160.23,0Z"/></g></g><g id="inner"><g id="Layer_1-2-2" data-name="Layer 1-2"><path id="Path_234-2" data-name="Path 234-2" class="cls-2" d="M59.3,174.85,11.75,92.51,59.3,10.18h95.05L201.9,92.51l-47.55,82.34Z"/><path id="Path_235-2" data-name="Path 235-2" class="cls-2" d="M153.89,10.92,201,92.52l-47.1,81.6H59.71L12.6,92.51l47.11-81.6h94.17m1-1.66H58.77L10.66,92.51l48.1,83.27h96.13L203,92.51,154.89,9.25Z"/></g></g><g id="purple"><path id="Path_236" data-name="Path 236" class="cls-2" d="M112.7,85.59H175V99.71H152.13v48.11H135.48V99.71H112.7Z"/><g id="Group_64" data-name="Group 64"><g id="Group_63" data-name="Group 63"><path id="Path_231" data-name="Path 231" class="cls-3" d="M111.46,84.19V101H134.4v48h18.86V101H176.2V84.19Zm62.3,14.4H150.82v48h-13.9v-48h-23v-12h59.84Z"/></g></g><g id="Group_70" data-name="Group 70"><g id="Group_69" data-name="Group 69"><path id="Path_233" data-name="Path 233" class="cls-4" d="M117.14,89.89v5.27h2.44V92.31H140.3V89.87Z"/></g></g><g id="Group_72" data-name="Group 72"><g id="Group_71" data-name="Group 71"><rect id="Rectangle_92" data-name="Rectangle 92" class="cls-4" x="142.78" y="89.89" width="4.07" height="2.44"/></g></g></g><g id="blue"><path id="Path_236-2" data-name="Path 236-2" class="cls-5" d="M47.94,52.27H110.2V66.41H87.35v48.1H70.81V66.41H47.94Z"/><g id="Group_64-2" data-name="Group 64-2"><g id="Group_63-2" data-name="Group 63-2"><path id="Path_231-2" data-name="Path 231-2" class="cls-1" d="M46.7,50.88V67.66H69.64v48H88.5v-48h22.94V50.88ZM109,65.28H86v48H72.16v-48h-23v-12H109Z"/></g></g><g id="Group_70-2" data-name="Group 70-2"><g id="Group_69-2" data-name="Group 69-2"><path id="Path_233-2" data-name="Path 233-2" class="cls-6" d="M52.38,56.58v5.27h2.44V59H75.55V56.56Z"/></g></g><g id="Group_72-2" data-name="Group 72-2"><g id="Group_71-2" data-name="Group 71-2"><rect id="Rectangle_92-2" data-name="Rectangle 92-2" class="cls-6" x="78.03" y="56.58" width="4.07" height="2.44"/></g></g></g></g></g></svg>