<svg xmlns="http://www.w3.org/2000/svg" viewBox="0 0 75 100"><defs><style>.cls-1{fill:#262626;}.cls-2{fill:#009be3;}</style></defs><g id="Layer_2" data-name="Layer 2"><g id="Layer_1-2" data-name="Layer 1"><g id="Layer_2-2" data-name="Layer 2"><g id="Layer_1-2-2" data-name="Layer 1-2"><g id="Layer_2-2-2" data-name="Layer 2-2"><g id="up-arrow-panel"><g id="Group_73" data-name="Group 73"><path id="Path_241" data-name="Path 241" class="cls-1" d="M74.5,99.5H.5V35.07L37.38.68,74.5,35.07Z"/><path id="Path_242" data-name="Path 242" class="cls-2" d="M37.38,1.37,1,35.29V99H74V35.29L37.38,1.37m0-1.37L75,34.85V100H0V34.85Z"/></g><path id="Path_243" data-name="Path 243" class="cls-2" d="M61.26,35.69l-22.55-22a1.54,1.54,0,0,0-2.17-.21h0l-.2.2-22.55,22a1.76,1.76,0,0,0-.11,2.49h0a1.77,1.77,0,0,0,1.28.57h10.7V67.23A2.72,2.72,0,0,0,28,69.47H47c1,0,1.19-1.18,1.19-2.24V38.76H60.07A1.78,1.78,0,0,0,61.83,37a1.8,1.8,0,0,0-.57-1.29ZM46,72.76H27.74a1.74,1.74,0,0,0,0,3.48H46a1.74,1.74,0,1,0,0-3.48Zm0,7.15H27.74a1.74,1.74,0,0,0,0,3.48H46a1.74,1.74,0,0,0,0-3.48Zm0,7H27.74a1.74,1.74,0,0,0,0,3.48H46a1.74,1.74,0,0,0,0-3.48Z"/></g></g></g></g></g></g></svg>